<svg xmlns="http://www.w3.org/2000/svg" viewBox="0 0 116.2 89.9" enable-background="new 0 0 116.2 89.9"><g fill="#fff"><path d="M28.2 50.7c0 6.1 4.9 11.1 11.9 11.1V39.6c-7 0-11.9 5-11.9 11.1zM85.1 50.7c0-6.1-5.9-11.1-11.9-11.1v22.1c5.9 0 11.9-4.9 11.9-11zM56.2 27.8c9.2 0 16.8 7.9 17.8 18.1.1-.7.1-1.5.1-2.3 0-11.2-8-20.4-17.9-20.4s-17.9 9.1-17.9 20.4c0 .8 0 1.5.1 2.3 1-10.1 8.6-18.1 17.8-18.1zM56.4 71.6c.7.1 1.5.2 2.3.2 9.9 0 18.2-5.4 20-14.4h-4.5c-1.8 7.9-8.9 13.3-17.8 14.2z"/><ellipse cx="56.2" cy="71.4" rx="5.4" ry="3.6"/></g><path fill="#D6D4CF" d="M93 59.2h2.9l3.1-3 3.1 3h2.9l-4.5-4.3 4.6-4.4h-2.9l-3.1 3-3.1-3h-3l4.6 4.4-4.6 4.3z"/><path fill="#8E9D1E" d="M80.6 19h1.7l1.9-1.8L86 19h1.7L85 16.4l2.7-2.6H86l-1.9 1.8-1.9-1.8h-1.7l2.7 2.6-2.6 2.6z"/><path fill="#3A8287" d="M85.8 76.5h1l1-1 1 1h1L88.3 75l1.5-1.5h-1l-1.1 1-1.1-1h-1l1.5 1.5-1.3 1.5zM82.2 42.6h1l1-1 1 1h1l-1.5-1.5 1.5-1.5h-1l-1.1 1-1.1-1h-1l1.5 1.5-1.3 1.5z"/><path fill="#B60051" d="M25.2 76.5h2.4l2.6-2.5 2.6 2.5h2.4l-3.7-3.6 3.8-3.6h-2.4l-2.6 2.5-2.6-2.5h-2.4l3.8 3.6-3.9 3.6z"/><path fill="#D6D4CF" d="M12.8 59.6h1.9l2-2 2 2h1.9l-3-2.9 3-2.9h-1.9l-2.1 2-2.1-2h-1.9l3 2.9-2.8 2.9z"/><path fill="#3A8287" d="M16.2 23h2.2l2.3-2.2L23 23h2.2l-3.4-3.3 3.5-3.3h-2.2l-2.4 2.3-2.4-2.3h-2.2l3.5 3.3-3.4 3.3z"/><path fill="#8E9D1E" d="M31.1 36.1h1l1-1 1 1h1l-1.5-1.5 1.5-1.5h-1l-1.1 1-1.1-1h-1l1.5 1.5-1.3 1.5z"/></svg>