<?xml version="1.0" encoding="utf-8"?>
<!-- Generator: Adobe Illustrator 18.1.0, SVG Export Plug-In . SVG Version: 6.00 Build 0)  -->
<svg version="1.1" id="Calque_1" xmlns="http://www.w3.org/2000/svg" xmlns:xlink="http://www.w3.org/1999/xlink" x="0px" y="0px"
	 viewBox="0 0 116.2 89.9" enable-background="new 0 0 116.2 89.9" xml:space="preserve">
<g>
	<path fill="#FFFFFF" d="M28.2,50.7c0,6.1,4.9,11.1,11.9,11.1V39.6C33.1,39.6,28.2,44.6,28.2,50.7z"/>
	<path fill="#FFFFFF" d="M85.1,50.7c0-6.1-5.9-11.1-11.9-11.1v22.1C79.1,61.7,85.1,56.8,85.1,50.7z"/>
	<path fill="#FFFFFF" d="M56.2,27.8c9.2,0,16.8,7.9,17.8,18.1c0.1-0.7,0.1-1.5,0.1-2.3c0-11.2-8-20.4-17.9-20.4s-17.9,9.1-17.9,20.4
		c0,0.8,0,1.5,0.1,2.3C39.4,35.8,47,27.8,56.2,27.8z"/>
	<path fill="#FFFFFF" d="M56.4,71.6c0.7,0.1,1.5,0.2,2.3,0.2c9.9,0,18.2-5.4,20-14.4h-4.5C72.4,65.3,65.3,70.7,56.4,71.6z"/>
	<ellipse fill="#FFFFFF" cx="56.2" cy="71.4" rx="5.4" ry="3.6"/>
</g>
<g>
	<path fill="#D6D4CF" d="M93,59.2h2.9l3.1-3l3.1,3h2.9l-4.5-4.3l4.6-4.4h-2.9l-3.1,3l-3.1-3H93l4.6,4.4L93,59.2z"/>
</g>
<g>
	<path fill="#8E9D1E" d="M80.6,19h1.7l1.9-1.8L86,19h1.7l-2.7-2.6l2.7-2.6h-1.7l-1.9,1.8l-1.9-1.8h-1.7l2.7,2.6L80.6,19z"/>
</g>
<g>
	<path fill="#3A8287" d="M85.8,76.5h1l1-1l1,1h1L88.3,75l1.5-1.5h-1l-1.1,1l-1.1-1h-1l1.5,1.5L85.8,76.5z"/>
</g>
<g>
	<path fill="#3A8287" d="M82.2,42.6h1l1-1l1,1h1l-1.5-1.5l1.5-1.5h-1l-1.1,1l-1.1-1h-1l1.5,1.5L82.2,42.6z"/>
</g>
<g>
	<path fill="#B60051" d="M25.2,76.5h2.4l2.6-2.5l2.6,2.5h2.4l-3.7-3.6l3.8-3.6h-2.4l-2.6,2.5l-2.6-2.5h-2.4l3.8,3.6L25.2,76.5z"/>
</g>
<g>
	<path fill="#D6D4CF" d="M12.8,59.6h1.9l2-2l2,2h1.9l-3-2.9l3-2.9h-1.9l-2.1,2l-2.1-2h-1.9l3,2.9L12.8,59.6z"/>
</g>
<g>
	<path fill="#3A8287" d="M16.2,23h2.2l2.3-2.2l2.3,2.2h2.2l-3.4-3.3l3.5-3.3h-2.2l-2.4,2.3l-2.4-2.3h-2.2l3.5,3.3L16.2,23z"/>
</g>
<g>
	<path fill="#8E9D1E" d="M31.1,36.1h1l1-1l1,1h1l-1.5-1.5l1.5-1.5h-1l-1.1,1l-1.1-1h-1l1.5,1.5L31.1,36.1z"/>
</g>
</svg>
