<svg xmlns="http://www.w3.org/2000/svg" width="91.667" height="91.667" viewBox="0 0 91.667 91.667"><path fill="#fff" d="M53.143 19.155h-15.12c-3.695 0-6.718 3.024-6.718 6.72v40.823c0 3.696 3.024 6.72 6.72 6.72H53.14c3.696 0 6.72-3.025 6.72-6.72V25.875c0-3.696-3.024-6.72-6.72-6.72zM45.21 71.79c-1.546 0-2.8-1.253-2.8-2.8 0-1.546 1.254-2.8 2.8-2.8 1.546 0 2.8 1.254 2.8 2.8 0 1.546-1.254 2.8-2.8 2.8zm11.852-6.16H34.104V24.475h22.958V65.63zM45.833 0c-.168 0-.333.01-.5.013v9.675c.278-.006.554-.02.833-.02 19.974 0 36.167 16.19 36.167 36.166S66.14 82 46.167 82 10 65.808 10 45.833c0-5.514 1.24-10.737 3.446-15.414l-8.98-4.342C1.607 32.06 0 38.758 0 45.833c0 25.313 20.52 45.833 45.833 45.833s45.833-20.52 45.833-45.833S71.146 0 45.833 0z"/></svg>