<svg xmlns="http://www.w3.org/2000/svg" viewBox="0 0 106.3 75.2" enable-background="new 0 0 106.3 75.2"><path fill="#fff" d="M60.5 23.7h-9.1c-2.2 0-4 1.8-4 4v24.5c0 2.2 1.8 4 4 4h9.1c2.2 0 4-1.8 4-4V27.7c0-2.2-1.8-4-4-4zm-4.8 31.6c-.9 0-1.7-.8-1.7-1.7 0-.9.8-1.7 1.7-1.7.9 0 1.7.8 1.7 1.7 0 .9-.7 1.7-1.7 1.7zm7.1-3.7H49.1V26.9h13.8v24.7zM55.8 12.2h-.6V18h.8c12 0 21.8 9.7 21.8 21.7s-9.6 21.7-21.6 21.7-21.6-9.7-21.6-21.7c0-3.3.8-6.4 2.1-9.2l-5.4-2.6c-1.7 3.6-2.7 7.6-2.7 11.8 0 15.2 12.3 27.5 27.5 27.5s27.3-12.3 27.3-27.5S71 12.2 55.8 12.2z"/><path fill="#D6D4CF" d="M92.5 14.5h2.1l2.3-2.2 2.3 2.2h2.1L98 11.3l3.4-3.2h-2.1L97 10.3 94.7 8h-2.1l3.4 3.2-3.5 3.3z"/><path fill="#3A8287" d="M32.1 13.2h1.3l1.3-1.3 1.3 1.3h1.3l-2-1.9 2-1.9H36l-1.4 1.3-1.4-1.3h-1.3l2 1.9-1.8 1.9z"/><path fill="#8E9D1E" d="M6.5 35.7h1.7l1.9-1.8 1.9 1.8h1.7L11 33l2.8-2.7H12l-1.9 1.8-1.9-1.8H6.5L9.2 33l-2.7 2.7z"/><path fill="#3A8287" d="M16.7 63.6H18l1.3-1.3 1.3 1.3h1.3l-2-1.9 2-1.9h-1.3L19.3 61l-1.4-1.3h-1.3l2 1.9-1.9 2zM89.9 40.6h1.3l1.3-1.3 1.3 1.3h1.3l-2-1.9 2-1.9h-1.3l-1.4 1.3-1.4-1.3h-1.3l2 1.9-1.8 1.9z"/><path fill="#B60051" d="M88.1 66.8h2.1l2.3-2.2 2.3 2.2h2.1l-3.4-3.2 3.4-3.2h-2.1l-2.3 2.2-2.3-2.2h-2.1l3.4 3.2-3.4 3.2z"/></svg>