<?xml version="1.0" encoding="utf-8"?>
<!-- Generator: Adobe Illustrator 18.1.0, SVG Export Plug-In . SVG Version: 6.00 Build 0)  -->
<svg version="1.1" id="Calque_1" xmlns="http://www.w3.org/2000/svg" xmlns:xlink="http://www.w3.org/1999/xlink" x="0px" y="0px"
	 viewBox="0 0 106.3 75.2" enable-background="new 0 0 106.3 75.2" xml:space="preserve">
<path fill="#FFFFFF" d="M60.5,23.7h-9.1c-2.2,0-4,1.8-4,4v24.5c0,2.2,1.8,4,4,4h9.1c2.2,0,4-1.8,4-4V27.7
	C64.5,25.5,62.7,23.7,60.5,23.7z M55.7,55.3c-0.9,0-1.7-0.8-1.7-1.7c0-0.9,0.8-1.7,1.7-1.7c0.9,0,1.7,0.8,1.7,1.7
	C57.4,54.5,56.7,55.3,55.7,55.3z M62.8,51.6H49.1V26.9h13.8V51.6z"/>
<path fill="#FFFFFF" d="M55.8,12.2c-0.1,0-0.6,0-0.6,0V18c0,0,0.6,0,0.8,0c12,0,21.8,9.7,21.8,21.7s-9.6,21.7-21.6,21.7
	s-21.6-9.7-21.6-21.7c0-3.3,0.8-6.4,2.1-9.2l-5.4-2.6c-1.7,3.6-2.7,7.6-2.7,11.8c0,15.2,12.3,27.5,27.5,27.5s27.3-12.3,27.3-27.5
	S71,12.2,55.8,12.2z"/>
<g>
	<path fill="#D6D4CF" d="M92.5,14.5h2.1l2.3-2.2l2.3,2.2h2.1L98,11.3l3.4-3.2h-2.1L97,10.3L94.7,8h-2.1l3.4,3.2L92.5,14.5z"/>
</g>
<g>
	<path fill="#3A8287" d="M32.1,13.2h1.3l1.3-1.3l1.3,1.3h1.3l-2-1.9l2-1.9H36l-1.4,1.3l-1.4-1.3h-1.3l2,1.9L32.1,13.2z"/>
</g>
<g>
	<path fill="#8E9D1E" d="M6.5,35.7h1.7l1.9-1.8l1.9,1.8h1.7L11,33l2.8-2.7H12l-1.9,1.8l-1.9-1.8H6.5L9.2,33L6.5,35.7z"/>
</g>
<g>
	<path fill="#3A8287" d="M16.7,63.6h1.3l1.3-1.3l1.3,1.3h1.3l-2-1.9l2-1.9h-1.3L19.3,61l-1.4-1.3h-1.3l2,1.9L16.7,63.6z"/>
</g>
<g>
	<path fill="#3A8287" d="M89.9,40.6h1.3l1.3-1.3l1.3,1.3h1.3l-2-1.9l2-1.9h-1.3l-1.4,1.3l-1.4-1.3h-1.3l2,1.9L89.9,40.6z"/>
</g>
<g>
	<path fill="#B60051" d="M88.1,66.8h2.1l2.3-2.2l2.3,2.2h2.1l-3.4-3.2l3.4-3.2h-2.1l-2.3,2.2l-2.3-2.2h-2.1l3.4,3.2L88.1,66.8z"/>
</g>
</svg>
