<?xml version="1.0" encoding="utf-8"?>
<svg version="1.1" id="Calque_1" xmlns="http://www.w3.org/2000/svg" xmlns:xlink="http://www.w3.org/1999/xlink" x="0px" y="0px"
	 width="91.667px" height="91.667px" viewBox="0 0 91.667 91.667" enable-background="new 0 0 91.667 91.667" xml:space="preserve">
<path fill="#FFFFFF" d="M53.143,19.155H38.024c-3.696,0-6.719,3.024-6.719,6.719v40.824c0,3.696,3.024,6.719,6.719,6.719h15.118
	c3.696,0,6.719-3.024,6.719-6.719V25.875C59.862,22.179,56.838,19.155,53.143,19.155z M45.21,71.79c-1.546,0-2.8-1.253-2.8-2.8
	c0-1.546,1.254-2.8,2.8-2.8c1.546,0,2.8,1.254,2.8,2.8C48.01,70.536,46.756,71.79,45.21,71.79z M57.062,65.63H34.104V24.475h22.958
	V65.63z"/>
<path fill="#FFFFFF" d="M45.833,0c-0.168,0-0.333,0.011-0.5,0.013v9.675c0.278-0.006,0.554-0.021,0.833-0.021
	c19.974,0,36.167,16.192,36.167,36.167S66.141,82,46.167,82S10,65.808,10,45.833c0-5.514,1.239-10.737,3.446-15.414l-8.979-4.341
	C1.605,32.061,0,38.759,0,45.833c0,25.313,20.52,45.833,45.833,45.833s45.833-20.52,45.833-45.833S71.146,0,45.833,0z"/>
</svg>
