<?xml version="1.0" encoding="utf-8"?>
<!-- Generator: Adobe Illustrator 18.1.0, SVG Export Plug-In . SVG Version: 6.00 Build 0)  -->
<svg version="1.1" id="Calque_1" xmlns="http://www.w3.org/2000/svg" xmlns:xlink="http://www.w3.org/1999/xlink" x="0px" y="0px"
	 viewBox="0 0 108 78.5" enable-background="new 0 0 108 78.5" xml:space="preserve">
<path fill="#FFFFFF" d="M62.1,19.3H47.9c-3.5,0-6.3,2.8-6.3,6.3V64c0,3.5,2.8,6.3,6.3,6.3h14.2c3.5,0,6.3-2.8,6.3-6.3V25.6
	C68.4,22.2,65.6,19.3,62.1,19.3z M54.7,68.8c-1.5,0-2.6-1.2-2.6-2.6c0-1.5,1.2-2.6,2.6-2.6c1.5,0,2.6,1.2,2.6,2.6
	C57.3,67.6,56.1,68.8,54.7,68.8z M65.8,63H44.2V24.3h21.6V63z"/>
<g>
	<polygon fill="#FFFFFF" points="57.3,48.2 52.8,48.2 52.9,48.6 53.3,49.4 54,50 54.9,50.3 55.7,50.2 56.6,49.7 57.2,48.9 
		57.4,48.3 	"/>
	<path fill="#FFFFFF" d="M56.5,50.6c-1.4,0-2.5-1.2-2.5-2.5v-2.5c-3-0.9-3.7-2.7-3.7-5c0-3.1,2.2-5.6,5.3-5.6c3.1,0,6,2.5,6,5.6
		c0,2.3-0.5,4-2.5,4.9v2.5C59,49.4,58,50.6,56.5,50.6z M55.3,35.7c-2.7,0-4.9,2.2-4.9,4.9c0,2,1.4,3.7,3.2,4.5l0.5,0.1v2.9
		c0,1,0.9,1.9,2,1.9s2-0.9,2-1.9v-2.9L57.9,45c1.7-0.7,2.5-2.4,2.5-4.4C60.4,37.9,58,35.7,55.3,35.7z"/>
	<path fill="#FFFFFF" d="M56.5,36.8c0,0,0.4-0.1,1,0.1c0.3,0.1,0.6,0.2,0.9,0.5c0.1,0.1,0.3,0.3,0.4,0.4c0.1,0.2,0.2,0.3,0.3,0.5
		c0.1,0.2,0.2,0.4,0.2,0.6c0.1,0.2,0.1,0.4,0.1,0.6c0,0.2,0,0.4,0,0.5c0,0.2-0.1,0.3-0.1,0.5c-0.1,0.3-0.2,0.5-0.3,0.6
		c-0.1,0.1-0.2,0.2-0.2,0.2s0-0.1-0.1-0.3c-0.1-0.2-0.1-0.4-0.2-0.6c0-0.1-0.1-0.2-0.1-0.4c0-0.1-0.1-0.3-0.1-0.4
		c-0.1-0.1-0.1-0.3-0.2-0.4c-0.1-0.1-0.1-0.3-0.2-0.4c-0.2-0.5-0.6-1-0.9-1.4C56.8,37.1,56.5,36.8,56.5,36.8z"/>
	<rect x="54" y="44.6" fill="#FFFFFF" width="4" height="1"/>
	<rect x="52.8" y="47" transform="matrix(0.9911 0.1334 -0.1334 0.9911 6.8079 -6.9278)" fill="#FFFFFF" width="4.6" height="0.7"/>
	<g>
		<rect x="56" y="30.6" fill="#FFFFFF" width="0" height="4.1"/>
		<rect x="62" y="39.6" fill="#FFFFFF" width="3" height="1"/>
		<rect x="45" y="39.6" fill="#FFFFFF" width="3" height="1"/>
		
			<rect x="59.5" y="45.9" transform="matrix(0.7301 0.6834 -0.6834 0.7301 48.1471 -29.3519)" fill="#FFFFFF" width="3.5" height="0.7"/>
		
			<rect x="47.2" y="34.5" transform="matrix(0.7301 0.6833 -0.6833 0.7301 37.0114 -24.0799)" fill="#FFFFFF" width="3.5" height="0.7"/>
		
			<rect x="60.6" y="32.8" transform="matrix(0.7202 0.6938 -0.6938 0.7202 40.9948 -32.6133)" fill="#FFFFFF" width="0.7" height="3.5"/>
		
			<rect x="49" y="44.8" transform="matrix(0.7192 0.6948 -0.6948 0.7192 46.1996 -21.1704)" fill="#FFFFFF" width="0.7" height="3.5"/>
	</g>
</g>
<polygon fill="#FFFFFF" points="87.4,45.1 79,36 79,39.6 70,39.6 70,49.6 79,49.6 79,54.2 "/>
<g>
	<path fill="#B60051" d="M17.9,65.6h2.1l2.3-2.2l2.3,2.2h2.1l-3.4-3.2l3.4-3.2h-2.1l-2.3,2.2L20,59.1h-2.1l3.4,3.2L17.9,65.6z"/>
</g>
<g>
	<path fill="#D6D4CF" d="M80.9,71.7h3l3.2-3.1l3.2,3.1h3l-4.7-4.5l4.7-4.5h-3l-3.2,3.1l-3.2-3.1h-3l4.7,4.5L80.9,71.7z"/>
</g>
<g>
	<path fill="#3A8287" d="M87.2,37.9h1.3l1.3-1.3l1.3,1.3h1.3l-2-1.9l2-1.9h-1.3l-1.4,1.3l-1.4-1.3h-1.3l2,1.9L87.2,37.9z"/>
</g>
<g>
	<path fill="#8E9D1E" d="M92.4,12.7h1.7l1.9-1.8l1.9,1.8h1.7L96.9,10l2.8-2.7h-1.7L96,9.2l-1.9-1.8h-1.7l2.8,2.7L92.4,12.7z"/>
</g>
<g>
	<path fill="#3A8287" d="M22.4,14.2h2.1l2.3-2.2l2.3,2.2h2.1L27.9,11l3.4-3.2h-2.1L26.8,10l-2.3-2.2h-2.1l3.4,3.2L22.4,14.2z"/>
</g>
<g>
	<path fill="#D6D4CF" d="M32.4,42.8h1.1l1.2-1.2l1.2,1.2h1.1l-1.8-1.7l1.8-1.7h-1.1l-1.2,1.2l-1.2-1.2h-1.1l1.8,1.7L32.4,42.8z"/>
</g>
<g>
	<path fill="#8E9D1E" d="M10.5,36h1.7l1.9-1.8L16,36h1.7L15,33.4l2.8-2.7H16l-1.9,1.8l-1.9-1.8h-1.7l2.8,2.7L10.5,36z"/>
</g>
</svg>
