<?xml version="1.0" encoding="utf-8"?>
<!-- Generator: Adobe Illustrator 17.0.0, SVG Export Plug-In . SVG Version: 6.00 Build 0)  -->
<!DOCTYPE svg PUBLIC "-//W3C//DTD SVG 1.1//EN" "http://www.w3.org/Graphics/SVG/1.1/DTD/svg11.dtd">
<svg version="1.1" id="Calque_1" xmlns="http://www.w3.org/2000/svg" xmlns:xlink="http://www.w3.org/1999/xlink" x="0px" y="0px"
	 width="77.441px" height="70.291px" viewBox="0 0 77.441 70.291" enable-background="new 0 0 77.441 70.291" xml:space="preserve">
<g>
	<path fill="#FFFFFF" d="M0,37.174c0,8.3,7.22,15.028,16.22,15.028V22.146C7.22,22.146,0,28.874,0,37.174z"/>
	<path fill="#FFFFFF" d="M77.441,37.174c0-8.3-7.22-15.028-16.22-15.028v30.055C70.22,52.201,77.441,45.473,77.441,37.174z"/>
	<path fill="#FFFFFF" d="M38.769,6.122c12.544,0,22.869,10.774,24.211,24.622c0.097-1.006,0.152-2.026,0.152-3.061
		C63.131,12.394,52.224,0,38.769,0S14.407,12.394,14.407,27.682c0,1.035,0.054,2.055,0.152,3.061
		C15.9,16.896,26.225,6.122,38.769,6.122z"/>
	<path fill="#FFFFFF" d="M39.042,65.798c1.006,0.097,2.026,0.335,3.061,0.335c13.469,0,24.686-8.497,27.166-19.497H63.15
		C60.86,56.636,51.122,64.628,39.042,65.798z"/>
	<ellipse fill="#FFFFFF" cx="38.827" cy="65.367" rx="7.357" ry="4.925"/>
</g>
</svg>
