<svg xmlns="http://www.w3.org/2000/svg" viewBox="0 0 108 78.5" enable-background="new 0 0 108 78.5"><path fill="#fff" d="M62.1 19.3H47.9c-3.5 0-6.3 2.8-6.3 6.3V64c0 3.5 2.8 6.3 6.3 6.3h14.2c3.5 0 6.3-2.8 6.3-6.3V25.6c0-3.4-2.8-6.3-6.3-6.3zm-7.4 49.5c-1.5 0-2.6-1.2-2.6-2.6 0-1.5 1.2-2.6 2.6-2.6 1.5 0 2.6 1.2 2.6 2.6 0 1.4-1.2 2.6-2.6 2.6zM65.8 63H44.2V24.3h21.6V63z"/><g fill="#fff"><path d="M57.3 48.2h-4.5l.1.4.4.8.7.6.9.3.8-.1.9-.5.6-.8.2-.6zM56.5 50.6c-1.4 0-2.5-1.2-2.5-2.5v-2.5c-3-.9-3.7-2.7-3.7-5 0-3.1 2.2-5.6 5.3-5.6 3.1 0 6 2.5 6 5.6 0 2.3-.5 4-2.5 4.9V48c-.1 1.4-1.1 2.6-2.6 2.6zm-1.2-14.9c-2.7 0-4.9 2.2-4.9 4.9 0 2 1.4 3.7 3.2 4.5l.5.1v2.9c0 1 .9 1.9 2 1.9s2-.9 2-1.9v-2.9l-.2-.2c1.7-.7 2.5-2.4 2.5-4.4 0-2.7-2.4-4.9-5.1-4.9zM56.5 36.8s.4-.1 1 .1c.3.1.6.2.9.5l.4.4c.1.2.2.3.3.5.1.2.2.4.2.6.1.2.1.4.1.6v.5c0 .2-.1.3-.1.5-.1.3-.2.5-.3.6l-.2.2s0-.1-.1-.3c-.1-.2-.1-.4-.2-.6 0-.1-.1-.2-.1-.4 0-.1-.1-.3-.1-.4-.1-.1-.1-.3-.2-.4-.1-.1-.1-.3-.2-.4-.2-.5-.6-1-.9-1.4-.2-.3-.5-.6-.5-.6zM54 44.6h4v1h-4zM52.868 46.697l4.56.614-.094.695-4.56-.614zM62 39.6h3v1h-3zM45 39.6h3v1h-3zM60.22 44.822l2.555 2.392-.478.51-2.555-2.39zM47.898 33.36l2.556 2.392-.48.51-2.554-2.39zM61.882 33.054l.504.485-2.428 2.52-.504-.486zM50.313 45.095l.504.486-2.432 2.52-.503-.488z"/></g><path fill="#fff" d="M87.4 45.1L79 36v3.6h-9v10h9v4.6z"/><path fill="#B60051" d="M17.9 65.6H20l2.3-2.2 2.3 2.2h2.1l-3.4-3.2 3.4-3.2h-2.1l-2.3 2.2-2.3-2.3h-2.1l3.4 3.2-3.4 3.3z"/><path fill="#D6D4CF" d="M80.9 71.7h3l3.2-3.1 3.2 3.1h3l-4.7-4.5 4.7-4.5h-3l-3.2 3.1-3.2-3.1h-3l4.7 4.5-4.7 4.5z"/><path fill="#3A8287" d="M87.2 37.9h1.3l1.3-1.3 1.3 1.3h1.3l-2-1.9 2-1.9h-1.3l-1.4 1.3-1.4-1.3H87l2 1.9-1.8 1.9z"/><path fill="#8E9D1E" d="M92.4 12.7h1.7l1.9-1.8 1.9 1.8h1.7L96.9 10l2.8-2.7H98l-2 1.9-1.9-1.8h-1.7l2.8 2.7-2.8 2.6z"/><path fill="#3A8287" d="M22.4 14.2h2.1l2.3-2.2 2.3 2.2h2.1L27.9 11l3.4-3.2h-2.1L26.8 10l-2.3-2.2h-2.1l3.4 3.2-3.4 3.2z"/><path fill="#D6D4CF" d="M32.4 42.8h1.1l1.2-1.2 1.2 1.2H37l-1.8-1.7 1.8-1.7h-1.1l-1.2 1.2-1.2-1.2h-1.1l1.8 1.7-1.8 1.7z"/><path fill="#8E9D1E" d="M10.5 36h1.7l1.9-1.8L16 36h1.7L15 33.4l2.8-2.7H16l-1.9 1.8-1.9-1.8h-1.7l2.8 2.7-2.8 2.6z"/></svg>