<svg xmlns="http://www.w3.org/2000/svg" width="77.441" height="70.291" viewBox="0 0 77.441 70.291"><g fill="#fff"><path d="M0 37.174c0 8.3 7.22 15.028 16.22 15.028V22.146c-9 0-16.22 6.728-16.22 15.028zM77.44 37.174c0-8.3-7.22-15.028-16.22-15.028V52.2c9 0 16.22-6.727 16.22-15.026zM38.77 6.122c12.543 0 22.868 10.774 24.21 24.622.097-1.006.152-2.026.152-3.06C63.132 12.393 52.224 0 38.77 0S14.406 12.394 14.406 27.682c0 1.035.054 2.055.152 3.06 1.34-13.846 11.665-24.62 24.21-24.62zM39.042 65.798c1.006.097 2.026.335 3.06.335 13.47 0 24.687-8.497 27.167-19.497h-6.12c-2.29 10-12.028 17.992-24.108 19.162z"/><ellipse cx="38.827" cy="65.367" rx="7.357" ry="4.925"/></g></svg>