<?xml version="1.0" encoding="utf-8"?>
<!-- Generator: Adobe Illustrator 17.0.0, SVG Export Plug-In . SVG Version: 6.00 Build 0)  -->
<!DOCTYPE svg PUBLIC "-//W3C//DTD SVG 1.1//EN" "http://www.w3.org/Graphics/SVG/1.1/DTD/svg11.dtd">
<svg version="1.1" xmlns="http://www.w3.org/2000/svg" xmlns:xlink="http://www.w3.org/1999/xlink" x="0px" y="0px"
	 width="1153.753px" height="494.578px" viewBox="0 0 1153.753 494.578" enable-background="new 0 0 1153.753 494.578"
	 xml:space="preserve">
<g id="Calque_1">
</g>
<g id="Calque_2">
	<path fill="none" stroke="#257EC1" stroke-miterlimit="10" stroke-dasharray="1,2" d="M79.191,372.437c0,0,23.5-7.637,32.5,0.713
		c9,8.35,3,21.721,0,26.036s0.007,12.076,4.753,12.195c4.747,0.119,18.819-6.051,21.563-16.011s16.676-38.768,32.68-38.819
		s24.518,1.467,34.761,9.708c10.243,8.241-21.515,11.98-20.136,29.11c1.379,17.13,45.478,21.767,58.678,4.949
		s126.203-52.498,187.282-4.368"/>
	<path opacity="0.05" fill="none" stroke="#28283A" stroke-miterlimit="10" d="M1138.062,482H861.511c-2.2,0-4-1.8-4-4V43.457
		c0-2.2,1.8-4,4-4h276.551c2.2,0,4,1.8,4,4V478C1142.062,480.2,1140.262,482,1138.062,482z"/>
	<path opacity="0.06" fill="#3C7BC6" d="M4,494.466h549.471c2.2,0,4-1.8,4-4V339.304c0-2.2-1.8-4-4-4H4c-2.2,0-4,1.8-4,4v151.162
		C0,492.666,1.8,494.466,4,494.466z"/>
	<circle opacity="0.38" fill="#28283A" cx="729.471" cy="73.918" r="52.461"/>
	<circle fill="none" stroke="#28283A" stroke-width="3" stroke-miterlimit="10" cx="729.988" cy="73.401" r="59.239"/>
	<polygon opacity="0.23" fill="#91408B" points="669.429,78.288 627.691,30.631 627.691,44 145.691,44 145.691,113 627.691,113 
		627.691,125.945 	"/>
	<g>
		<circle fill="#760069" cx="208.214" cy="78.386" r="18.856"/>
		<text transform="matrix(1 0 0 1 201.7549 85.1817)" fill="#FFFFFF" font-family="'MyriadPro-Regular'" font-size="23.154">1</text>
	</g>
	<rect x="243.991" y="89.993" fill="none" width="125.913" height="26.435"/>
	<text transform="matrix(1 0 0 1 243.9907 99.5341)" fill="#28283A" font-family="'Roboto-Light'" font-size="12.5217">Push du code</text>
	<circle fill="#760069" cx="309.257" cy="171.212" r="18.856"/>
	<text transform="matrix(1 0 0 1 302.7983 178.0078)" fill="#FFFFFF" font-family="'MyriadPro-Regular'" font-size="23.154">2</text>
	<text transform="matrix(1 0 0 1 336.3154 181.916)" fill="#760069" font-family="'Roboto-Bold'" font-size="30.1206">BUILD</text>
	<rect x="291.792" y="196.423" fill="none" width="226.087" height="30.977"/>
	<text transform="matrix(1 0 0 1 291.7925 205.9639)"><tspan x="0" y="0" fill="#28283A" font-family="'Roboto-Light'" font-size="12.5217">Lancement automatique </tspan><tspan x="0" y="15.026" fill="#28283A" font-family="'Roboto-Light'" font-size="12.5217">de la compilation sur Jenkins</tspan></text>
	<circle fill="#760069" cx="891.257" cy="138.212" r="18.856"/>
	<text transform="matrix(1 0 0 1 884.7983 145.0078)" fill="#FFFFFF" font-family="'MyriadPro-Regular'" font-size="23.154">3</text>
	<text transform="matrix(1 0 0 1 918.3154 148.916)" fill="#760069" font-family="'Roboto-Bold'" font-size="30.1206">SUIVI</text>
	<g>
		<rect x="879.333" y="171.068" fill="none" width="262.728" height="58.137"/>
		<text transform="matrix(1 0 0 1 879.333 180.6096)"><tspan x="0" y="0" fill="#28283A" font-family="'Roboto-Light'" font-size="12.5217">Les stories impactées par le push peuvent être </tspan><tspan x="0" y="15.026" fill="#28283A" font-family="'Roboto-Light'" font-size="12.5217">mises à jour automatiquement  dans l’outil de </tspan><tspan x="0" y="30.053" fill="#28283A" font-family="'Roboto-Light'" font-size="12.5217">suivi de projet : Exemple </tspan><tspan x="135.378" y="30.053" fill="#28283A" font-family="'Roboto-Bold'" font-size="12.5217">«Delivered»</tspan></text>
	</g>
	<circle fill="#760069" cx="895.257" cy="346.212" r="18.856"/>
	<text transform="matrix(1 0 0 1 888.7983 353.0078)" fill="#FFFFFF" font-family="'MyriadPro-Regular'" font-size="23.154">4</text>
	<text transform="matrix(1 0 0 1 922.3154 356.916)" fill="#760069" font-family="'Roboto-Bold'" font-size="30.1206">DISTRIBUTION</text>
	<g>
		<rect x="879.333" y="380.947" fill="none" width="262.728" height="58.137"/>
		<text transform="matrix(1 0 0 1 879.333 390.4887)"><tspan x="0" y="0" fill="#28283A" font-family="'Roboto-Light'" font-size="12.5217">Côté mobile, une nouvelle version </tspan><tspan x="0" y="15.026" fill="#28283A" font-family="'Roboto-Light'" font-size="12.5217">est automatiqument uploadée </tspan><tspan x="0" y="30.053" fill="#28283A" font-family="'Roboto-Light'" font-size="12.5217">sur le mobile application manager </tspan><tspan x="0" y="45.079" fill="#28283A" font-family="'Roboto-Bold'" font-size="12.5217">(mam.xebia.fr)</tspan></text>
	</g>
	<g id="_x31_3Iu2y.tif_1_">
		
			<image overflow="visible" width="464" height="408" id="Layer_0_4_" xlink:href="28C6A1D2632FDAF.png"  transform="matrix(0.213 0 0 0.213 680.564 29.942)">
		</image>
	</g>
	<circle fill="#FFFFFF" stroke="#760069" stroke-width="3" stroke-miterlimit="10" cx="105.548" cy="76.183" r="59.239"/>
	<g>
		<g>
			<circle opacity="0.47" fill="#760069" cx="105.548" cy="76.183" r="51.379"/>
		</g>
		<g>
			<g>
				<path fill="#FFFFFF" d="M104.1,75.079h-7.498c0.488-1.723,1.978-2.827,3.672-2.827C102.226,72.252,103.561,73.228,104.1,75.079
					 M96.5,77.628h11.04c0-0.231,0.026-0.463,0.026-0.695c0-1.828-0.385-3.293-1.309-4.527c-1.438-1.968-3.594-3.093-5.982-3.093
					c-1.9,0-3.723,0.817-5.135,2.299c-1.284,1.359-1.952,3.08-1.952,5.011c0,1.852,0.745,3.726,2.054,5.082
					c1.387,1.431,3.133,2.146,5.162,2.146c3.047,0,5.485-1.712,6.666-4.735h-3.465c-0.667,1.104-1.873,1.719-3.283,1.719
					C98.143,80.837,96.705,79.605,96.5,77.628"/>
				<path fill="#FFFFFF" d="M112.587,76.685c0-2.361,1.722-4.131,3.958-4.131c2.236,0,4.009,1.873,4.009,4.08
					c0,2.285-1.722,4.054-4.164,4.054C114.335,80.688,112.587,78.969,112.587,76.685 M112.458,70.828v-5.56h-3.16v18.239h3.16
					v-1.113c1.286,0.994,2.674,1.454,4.293,1.454c1.748,0,3.316-0.561,4.523-1.606c1.669-1.426,2.593-3.453,2.593-5.661
					c0-2.027-0.821-3.977-2.336-5.364c-1.284-1.208-2.955-1.824-4.754-1.824C115.048,69.389,113.689,69.801,112.458,70.828"/>
				<path fill="#FFFFFF" d="M126.075,69.733h3.091v13.776h-3.091V69.733z M126.075,65.269h3.091v3.051h-3.091V65.269z"/>
				<path fill="#FFFFFF" d="M134.48,76.5c0-2.23,1.795-3.946,3.923-3.946c2.026,0,3.872,1.794,3.872,4.1
					c0,2.126-1.82,3.921-3.821,3.921C136.3,80.574,134.48,78.884,134.48,76.5 M142.671,83.508h3.065V69.733h-3.091v1.653
					c-0.935-1.33-2.371-1.993-4.371-1.993c-2.077,0-3.718,0.663-5.102,2.116c-1.282,1.326-1.974,3.12-1.974,5.042
					c0,4.1,3.051,7.258,7.154,7.258c2.129,0,3.513-0.615,4.282-2.003L142.671,83.508z"/>
			</g>
			<polygon fill="#FFFFFF" points="65.053,89.534 73.521,89.534 82.588,80.467 91.654,89.534 100.122,89.534 86.822,76.237 
				100.227,62.832 91.759,62.832 82.588,72.004 73.416,62.832 64.949,62.832 78.354,76.237 			"/>
		</g>
	</g>
	<g id="Ebene_x0020_1">
		<g id="_153574520">
			<path id="_153577136" d="M701.021,150.017c1.205,0,2.598-0.301,4.18-0.904v3.879c-0.352,0.125-0.854,0.264-1.507,0.414
				c0.201,0.577,0.301,1.117,0.301,1.619c0,1.607-0.483,3.007-1.45,4.199c-0.967,1.193-2.216,1.902-3.747,2.128
				c-1.004,0.151-1.506,0.691-1.506,1.62c0,0.326,0.163,0.653,0.49,0.979c0.427,0.477,1.054,0.779,1.883,0.904
				c3.591,0.552,5.386,2.046,5.386,4.482c0,3.892-2.322,5.838-6.967,5.838c-1.908,0-3.478-0.339-4.708-1.017
				c-1.557-0.854-2.335-2.197-2.335-4.03c0-2.109,1.168-3.553,3.502-4.331v-0.075c-0.854-0.527-1.28-1.331-1.28-2.41
				c0-1.406,0.402-2.285,1.205-2.636V160.6c-0.803-0.276-1.519-0.904-2.147-1.883c-0.703-1.054-1.055-2.184-1.055-3.39
				c0-1.808,0.64-3.314,1.921-4.519c1.23-1.13,2.699-1.695,4.407-1.695C698.824,149.113,699.966,149.414,701.021,150.017z
				 M701.171,169.827L701.171,169.827c0-1.281-1.054-1.921-3.164-1.921c-2.034,0-3.051,0.665-3.051,1.996
				c0,1.305,1.105,1.958,3.314,1.958C700.205,171.86,701.171,171.183,701.171,169.827L701.171,169.827z M695.371,155.365
				L695.371,155.365c0,1.733,0.791,2.599,2.373,2.599c1.532,0,2.297-0.879,2.297-2.636c0-0.728-0.176-1.356-0.527-1.883
				c-0.427-0.577-1.017-0.866-1.77-0.866C696.162,152.577,695.371,153.507,695.371,155.365z"/>
			<path id="_153577064" d="M709.195,146.363c-0.728,0-1.349-0.276-1.864-0.829c-0.515-0.552-0.772-1.205-0.772-1.958
				c0-0.778,0.257-1.444,0.772-1.996c0.515-0.552,1.136-0.829,1.864-0.829c0.703,0,1.312,0.276,1.827,0.829
				c0.515,0.552,0.772,1.218,0.772,1.996c0,0.753-0.257,1.406-0.772,1.958C710.507,146.087,709.898,146.363,709.195,146.363z"/>
			<path id="_153576992" d="M707.048,166.023c0.05-0.502,0.075-1.356,0.075-2.561v-11.713c0-1.18-0.025-1.996-0.075-2.448h4.256
				c-0.05,0.477-0.075,1.268-0.075,2.373v11.562c0,1.281,0.025,2.21,0.075,2.787H707.048z"/>
			<path id="_153576920" d="M719.097,149.301h3.276v3.653c-0.125,0-0.358-0.012-0.697-0.038c-0.339-0.025-0.659-0.038-0.96-0.038
				h-1.619v7.005c0,1.682,0.552,2.523,1.657,2.523c0.778,0,1.481-0.213,2.109-0.64v3.766c-0.929,0.502-2.046,0.753-3.352,0.753
				c-1.833,0-3.101-0.653-3.804-1.958c-0.527-0.979-0.791-2.523-0.791-4.633v-6.741h0.038v-0.075l-0.565-0.038
				c-0.326,0-0.753,0.038-1.28,0.113v-3.653h1.845v-1.469c0-0.703-0.038-1.268-0.113-1.695h4.369
				c-0.075,0.477-0.113,1.017-0.113,1.619V149.301L719.097,149.301z"/>
			<path id="_153576848" d="M732.326,149.188c-1.08,0-2.209,0.377-3.39,1.13v-6.591c0-1.431,0.025-2.373,0.075-2.825h-4.294
				c0.075,0.402,0.113,1.343,0.113,2.825v19.923c0,1.155-0.038,1.946-0.113,2.373h4.369c0-0.075-0.025-0.383-0.075-0.923
				c-0.05-0.54-0.075-1.023-0.075-1.45v-9.265c0.879-0.829,1.732-1.243,2.561-1.243c0.954,0,1.682,0.477,2.184,1.431
				c0.377,0.753,0.565,1.695,0.565,2.825l-0.038,5.084c0,0.854-0.063,2.034-0.188,3.54h4.557c-0.1-0.628-0.151-1.783-0.151-3.465
				v-5.159c0-2.184-0.49-4.042-1.469-5.574C735.853,150.067,734.309,149.188,732.326,149.188L732.326,149.188z"/>
			<path id="_153576776" d="M745.659,166.174c-1.984,0-3.452-0.879-4.406-2.637c-0.753-1.431-1.13-3.302-1.13-5.611v-5.16
				c0-1.707-0.05-2.862-0.151-3.465h4.519c-0.075,0.552-0.125,1.732-0.151,3.54l-0.038,5.084c0,1.431,0.163,2.461,0.49,3.088
				c0.377,0.779,1.067,1.168,2.071,1.168c0.703,0,1.494-0.414,2.373-1.243v-9.265c0-0.427-0.025-0.917-0.075-1.469
				c-0.05-0.552-0.075-0.854-0.075-0.904h4.369c-0.05,0.427-0.075,1.218-0.075,2.373v11.525c0,1.481,0.025,2.423,0.075,2.824h-4.105
				v-1.356C748.195,165.671,746.965,166.174,745.659,166.174L745.659,166.174z"/>
			<path id="_153576704" d="M762.608,166.136c-1.356,0-2.485-0.49-3.39-1.469v1.356h-3.992c0.075-0.427,0.113-1.218,0.113-2.373
				v-19.923c0-1.481-0.038-2.423-0.113-2.825h4.294c-0.05,0.452-0.075,1.393-0.075,2.825v6.553c1.155-0.728,2.285-1.092,3.389-1.092
				c1.984,0,3.54,0.879,4.67,2.636c0.954,1.532,1.431,3.39,1.431,5.574c0,2.235-0.502,4.18-1.506,5.837
				C766.224,165.169,764.617,166.136,762.608,166.136L762.608,166.136z M762.044,153.143L762.044,153.143
				c-0.829,0-1.695,0.414-2.599,1.243v6.516c0.803,0.778,1.594,1.168,2.373,1.168c0.979,0,1.72-0.54,2.222-1.62
				c0.402-0.854,0.603-1.871,0.603-3.05C764.642,154.561,763.776,153.143,762.044,153.143L762.044,153.143z"/>
			<g>
				<path id="_153576632" d="M709.982,169.633c-0.239-0.324-0.546-0.529-0.964-0.529c-0.401,0-0.785,0.307-0.785,0.726
					c0,1.084,2.552,0.631,2.552,2.79c0,1.289-0.802,2.202-2.116,2.202c-0.888,0-1.536-0.512-1.98-1.254l0.811-0.794
					c0.171,0.495,0.623,0.939,1.161,0.939c0.512,0,0.828-0.435,0.828-0.93c0-0.666-0.614-0.853-1.118-1.049
					c-0.828-0.342-1.434-0.76-1.434-1.758c0-1.067,0.794-1.929,1.878-1.929c0.572,0,1.365,0.282,1.758,0.717L709.982,169.633
					L709.982,169.633z"/>
				<path id="_153576560" d="M714.316,174.821c-1.963,0-3.183-1.502-3.183-3.397c0-1.912,1.263-3.379,3.183-3.379
					c1.92,0,3.183,1.468,3.183,3.379C717.5,173.319,716.279,174.821,714.316,174.821z M714.316,169.283L714.316,169.283
					c-1.186,0-1.886,1.049-1.886,2.091c0,0.99,0.495,2.21,1.886,2.21c1.391,0,1.886-1.22,1.886-2.21
					C716.202,170.332,715.502,169.283,714.316,169.283L714.316,169.283z"/>
				<path id="_153576488" d="M722.414,169.923c-0.35-0.427-0.879-0.683-1.417-0.683c-1.203,0-1.895,1.109-1.895,2.219
					c0,1.084,0.717,2.167,1.886,2.167c0.538,0,1.075-0.282,1.425-0.682v1.493c-0.469,0.222-0.939,0.384-1.459,0.384
					c-1.809,0-3.149-1.562-3.149-3.337c0-1.826,1.289-3.439,3.175-3.439c0.503,0,0.998,0.137,1.434,0.375V169.923L722.414,169.923z"
					/>
				<polygon id="_153576416" points="724.495,174.651 723.241,174.651 723.241,168.216 724.495,168.216 				"/>
				<path id="_153576344" d="M726.722,173.294l-0.529,1.357h-1.323l2.509-6.605h0.973l2.441,6.605h-1.34l-0.495-1.357H726.722z
					 M727.806,169.931L727.806,169.931h-0.017l-0.708,2.339h1.528L727.806,169.931L727.806,169.931z"/>
				<polygon id="_153576272" points="732.43,173.558 734.205,173.558 734.205,174.651 731.176,174.651 731.176,168.216 
					732.43,168.216 				"/>
				<path id="_153576200" d="M741.372,169.923c-0.35-0.427-0.879-0.683-1.417-0.683c-1.203,0-1.895,1.109-1.895,2.219
					c0,1.084,0.717,2.167,1.886,2.167c0.538,0,1.075-0.282,1.425-0.682v1.493c-0.469,0.222-0.939,0.384-1.459,0.384
					c-1.809,0-3.149-1.562-3.149-3.337c0-1.826,1.289-3.439,3.175-3.439c0.503,0,0.998,0.137,1.434,0.375V169.923L741.372,169.923z"
					/>
				<path id="_153576128" d="M745.075,174.821c-1.963,0-3.183-1.502-3.183-3.397c0-1.912,1.263-3.379,3.183-3.379
					c1.92,0,3.183,1.468,3.183,3.379C748.258,173.319,747.038,174.821,745.075,174.821L745.075,174.821z M745.075,169.283
					L745.075,169.283c-1.186,0-1.886,1.049-1.886,2.091c0,0.99,0.495,2.21,1.886,2.21c1.391,0,1.886-1.22,1.886-2.21
					C746.961,170.332,746.261,169.283,745.075,169.283L745.075,169.283z"/>
				<path id="_153576056" d="M748.871,168.216h1.792c1.86,0,3.106,1.391,3.106,3.226c0,1.809-1.28,3.209-3.115,3.209h-1.784V168.216
					z M750.126,173.558L750.126,173.558h0.205c1.544,0,2.142-0.853,2.142-2.125c0-1.399-0.717-2.125-2.142-2.125h-0.205V173.558z"/>
				<polygon id="_153575504" points="755.638,174.651 754.383,174.651 754.383,168.216 755.638,168.216 				"/>
				<polygon id="_153574688" points="756.55,168.046 757.455,168.046 760.843,172.543 760.86,172.543 760.86,168.216 
					762.115,168.216 762.115,174.779 761.21,174.779 757.822,170.281 757.805,170.281 757.805,174.651 756.55,174.651 				"/>
				<path id="_153575624" d="M768.71,171.229v0.162c0,1.818-0.93,3.431-2.927,3.431c-1.878,0-3.064-1.587-3.064-3.362
					c0-1.835,1.22-3.414,3.141-3.414c1.092,0,2.048,0.555,2.543,1.536l-1.109,0.597c-0.256-0.58-0.802-1.024-1.468-1.024
					c-1.212,0-1.809,1.237-1.809,2.304c0,1.066,0.606,2.253,1.818,2.253c0.785,0,1.442-0.683,1.468-1.459h-1.365v-1.024H768.71
					L768.71,171.229z"/>
			</g>
		</g>
	</g>
	<g>
		<path fill="#59597C" d="M162.601,134.001c0,0,0.003,0.001,0.008,0.002l0.008,0.001c0,0,0.003-0.008,0.004,0.009
			c0.001,0.037,0.002,0.077,0.004,0.119c0.01,0.336,0.015,0.814-0.003,1.387c-0.035,1.145-0.162,2.663-0.529,4.16
			c-0.734,2.993-2.427,5.897-6.266,5.542c0,0-1.536-3.201,0.994-4.624c1.265-0.711,2.281-1.482,3.094-2.608
			c0.407-0.563,0.762-1.215,1.073-1.993c0.155-0.389,0.299-0.809,0.433-1.266l0.192-0.713c0.062-0.077,0.12-0.112,0.177-0.158
			c0,0,0.226-0.035,0.44,0.023C162.444,133.937,162.647,134.013,162.601,134.001z"/>
		<path fill="#59597C" d="M161.7,133.566c0,0-0.085,0.018-0.268,0.11c-0.092,0.047-0.208,0.118-0.351,0.231L160.968,134
			c-0.039,0.087-0.08,0.177-0.122,0.27c-0.086,0.179-0.178,0.371-0.276,0.576c-0.791,1.57-2.033,3.378-3.84,4.327
			c-1.806,0.949-2.484-0.296-2.472-1.852c0.006-0.778,0.184-1.634,0.479-2.332c0.148-0.349,0.324-0.659,0.523-0.9
			c0.199-0.292,0.421-0.633,0.658-0.697c0.927-0.359,1.898-0.782,2.785-1.003c0.887-0.231,1.691-0.232,2.284-0.033l0.131,0.08
			c0,0,0.132,0.156,0.287,0.338c0.184,0.218,0.394,0.466,0.49,0.606C161.99,133.531,161.972,133.544,161.7,133.566z"/>
		<path fill="#59597C" d="M165.009,133.159c4.265-0.903,5.927-2.439,7.349-4.968c1.422-2.529,4.623-0.994,4.623-0.994
			c0.711,7.678-11.616,6.774-11.616,6.774C163.347,134.062,165.009,133.159,165.009,133.159z"/>
		<path fill="#59597C" d="M165.365,127.287c0.593-1.897,7.467-2.801,5.571,0.812c-1.897,3.613-7.231,4.969-7.231,4.969
			c-0.282,0.102-0.532,0.168-0.754,0.206c-0.111,0.019-0.215,0.031-0.313,0.037c-0.022,0.006-0.031,0.006-0.046,0.001
			c-0.053-0.021-0.109-0.126-0.177-0.256c-0.135-0.26-0.286-0.621-0.286-0.621c0.123-0.294,0.248-0.644,0.601-1.033
			c0.448-0.39,0.841-0.819,1.181-1.27C164.593,129.229,165.068,128.236,165.365,127.287z"/>
		<path fill="#59597C" d="M156.551,130.504c-0.981-0.138-1.599-1.067-1.978-2.298c-0.38-1.201-0.521-2.549-0.546-2.811
			c0.03-0.003,0.045-0.005,0.045-0.005c1.347-0.226,2.941-0.226,4.098-0.17c1.168,0.057,1.924,0.17,1.924,0.17
			s1.277,0.113,2.302,0.485c0.305,0.093,0.362,0.202,0.496,0.33c0.117,0.128,0.218,0.274,0.293,0.442
			c0.15,0.335,0.194,0.752,0.046,1.272c-0.212,0.759-0.496,1.399-0.768,1.937c-0.254,0.538-0.426,0.975-0.539,1.328
			c-0.223,0.707-0.235,1.081-0.263,1.267l-0.098-0.032c-0.253-0.178-0.688-0.5-1.568-1.057
			C159.287,131.052,158.202,130.783,156.551,130.504z"/>
	</g>
	<g>
		<path fill="#59597C" d="M554,134.001c0,0-0.003,0.001-0.008,0.002l-0.008,0.001c0,0-0.003-0.008-0.004,0.009
			c-0.001,0.037-0.003,0.077-0.004,0.119c-0.01,0.336-0.015,0.814,0.003,1.387c0.035,1.145,0.162,2.663,0.529,4.16
			c0.734,2.993,2.427,5.897,6.266,5.542c0,0,1.536-3.201-0.994-4.624c-1.265-0.711-2.281-1.482-3.094-2.608
			c-0.406-0.563-0.762-1.215-1.073-1.993c-0.155-0.389-0.299-0.809-0.433-1.266l-0.192-0.713c-0.062-0.077-0.12-0.112-0.177-0.158
			c0,0-0.226-0.035-0.44,0.023C554.157,133.937,553.954,134.013,554,134.001z"/>
		<path fill="#59597C" d="M554.901,133.566c0,0,0.085,0.018,0.268,0.11c0.092,0.047,0.208,0.118,0.351,0.231l0.112,0.093
			c0.039,0.087,0.08,0.177,0.122,0.27c0.086,0.179,0.178,0.371,0.276,0.576c0.791,1.57,2.033,3.378,3.84,4.327
			c1.806,0.949,2.484-0.296,2.472-1.852c-0.006-0.778-0.184-1.634-0.479-2.332c-0.148-0.349-0.324-0.659-0.523-0.9
			c-0.199-0.292-0.421-0.633-0.658-0.697c-0.927-0.359-1.898-0.782-2.785-1.003c-0.887-0.231-1.691-0.232-2.284-0.033l-0.131,0.08
			c0,0-0.132,0.156-0.288,0.338c-0.184,0.218-0.394,0.466-0.49,0.606C554.61,133.531,554.629,133.544,554.901,133.566z"/>
		<path fill="#59597C" d="M551.592,133.159c-4.265-0.903-5.927-2.439-7.349-4.968c-1.422-2.529-4.622-0.994-4.622-0.994
			c-0.711,7.678,11.616,6.774,11.616,6.774C553.254,134.062,551.592,133.159,551.592,133.159z"/>
		<path fill="#59597C" d="M551.236,127.287c-0.593-1.897-7.467-2.801-5.571,0.812c1.897,3.613,7.231,4.969,7.231,4.969
			c0.282,0.102,0.532,0.168,0.754,0.206c0.111,0.019,0.215,0.031,0.313,0.037c0.022,0.006,0.031,0.006,0.046,0.001
			c0.053-0.021,0.109-0.126,0.177-0.256c0.135-0.26,0.286-0.621,0.286-0.621c-0.123-0.294-0.248-0.644-0.601-1.033
			c-0.448-0.39-0.841-0.819-1.181-1.27C552.007,129.229,551.533,128.236,551.236,127.287z"/>
		<path fill="#59597C" d="M560.05,130.504c0.981-0.138,1.599-1.067,1.979-2.298c0.38-1.201,0.521-2.549,0.546-2.811
			c-0.03-0.003-0.045-0.005-0.045-0.005c-1.347-0.226-2.941-0.226-4.098-0.17c-1.168,0.057-1.924,0.17-1.924,0.17
			s-1.277,0.113-2.302,0.485c-0.305,0.093-0.362,0.202-0.496,0.33c-0.117,0.128-0.218,0.274-0.293,0.442
			c-0.15,0.335-0.194,0.752-0.046,1.272c0.212,0.759,0.496,1.399,0.768,1.937c0.254,0.538,0.426,0.975,0.539,1.328
			c0.223,0.707,0.235,1.081,0.263,1.267l0.098-0.032c0.253-0.178,0.688-0.5,1.568-1.057
			C557.314,131.052,558.399,130.783,560.05,130.504z"/>
	</g>
	<g>
		<path fill="#59597C" d="M162.601,280.829c0,0,0.003-0.001,0.008-0.002l0.008-0.001c0,0,0.003,0.008,0.004-0.009
			c0.001-0.037,0.002-0.077,0.004-0.119c0.01-0.336,0.015-0.814-0.003-1.387c-0.035-1.145-0.162-2.663-0.529-4.16
			c-0.734-2.993-2.427-5.897-6.266-5.542c0,0-1.536,3.201,0.994,4.624c1.265,0.711,2.281,1.482,3.094,2.608
			c0.407,0.563,0.762,1.215,1.073,1.993c0.155,0.389,0.299,0.809,0.433,1.266l0.192,0.713c0.062,0.077,0.12,0.112,0.177,0.158
			c0,0,0.226,0.035,0.44-0.023C162.444,280.892,162.647,280.817,162.601,280.829z"/>
		<path fill="#59597C" d="M161.7,281.263c0,0-0.085-0.018-0.268-0.11c-0.092-0.047-0.208-0.118-0.351-0.231l-0.112-0.093
			c-0.039-0.087-0.08-0.177-0.122-0.27c-0.086-0.179-0.178-0.371-0.276-0.576c-0.791-1.57-2.033-3.378-3.84-4.327
			c-1.806-0.949-2.484,0.296-2.472,1.852c0.006,0.778,0.184,1.634,0.479,2.332c0.148,0.349,0.324,0.659,0.523,0.9
			c0.199,0.292,0.421,0.633,0.658,0.697c0.927,0.359,1.898,0.782,2.785,1.003c0.887,0.231,1.691,0.232,2.284,0.033l0.131-0.08
			c0,0,0.132-0.156,0.287-0.338c0.184-0.218,0.394-0.466,0.49-0.606C161.99,281.298,161.972,281.286,161.7,281.263z"/>
		<path fill="#59597C" d="M165.009,281.671c4.265,0.903,5.927,2.439,7.349,4.968c1.422,2.529,4.623,0.994,4.623,0.994
			c0.711-7.678-11.616-6.774-11.616-6.774C163.347,280.767,165.009,281.671,165.009,281.671z"/>
		<path fill="#59597C" d="M165.365,287.542c0.593,1.897,7.467,2.801,5.571-0.812c-1.897-3.613-7.231-4.969-7.231-4.969
			c-0.282-0.102-0.532-0.168-0.754-0.206c-0.111-0.019-0.215-0.031-0.313-0.037c-0.022-0.006-0.031-0.006-0.046-0.001
			c-0.053,0.021-0.109,0.126-0.177,0.256c-0.135,0.26-0.286,0.621-0.286,0.621c0.123,0.294,0.248,0.644,0.601,1.033
			c0.448,0.39,0.841,0.819,1.181,1.27C164.593,285.6,165.068,286.594,165.365,287.542z"/>
		<path fill="#59597C" d="M156.551,284.326c-0.981,0.138-1.599,1.066-1.978,2.298c-0.38,1.201-0.521,2.549-0.546,2.811
			c0.03,0.003,0.045,0.005,0.045,0.005c1.347,0.226,2.941,0.226,4.098,0.17c1.168-0.057,1.924-0.17,1.924-0.17
			s1.277-0.113,2.302-0.485c0.305-0.093,0.362-0.202,0.496-0.33c0.117-0.128,0.218-0.274,0.293-0.442
			c0.15-0.335,0.194-0.752,0.046-1.272c-0.212-0.759-0.496-1.399-0.768-1.937c-0.254-0.538-0.426-0.975-0.539-1.328
			c-0.223-0.707-0.235-1.081-0.263-1.267l-0.098,0.032c-0.253,0.178-0.688,0.5-1.568,1.057
			C159.287,283.778,158.202,284.047,156.551,284.326z"/>
	</g>
	<g>
		<path fill="#59597C" d="M554,280.829c0,0-0.003-0.001-0.008-0.002l-0.008-0.001c0,0-0.003,0.008-0.004-0.009
			c-0.001-0.037-0.003-0.077-0.004-0.119c-0.01-0.336-0.015-0.814,0.003-1.387c0.035-1.145,0.162-2.663,0.529-4.16
			c0.734-2.993,2.427-5.897,6.266-5.542c0,0,1.536,3.201-0.994,4.624c-1.265,0.711-2.281,1.482-3.094,2.608
			c-0.406,0.563-0.762,1.215-1.073,1.993c-0.155,0.389-0.299,0.809-0.433,1.266l-0.192,0.713c-0.062,0.077-0.12,0.112-0.177,0.158
			c0,0-0.226,0.035-0.44-0.023C554.157,280.892,553.954,280.817,554,280.829z"/>
		<path fill="#59597C" d="M554.901,281.263c0,0,0.085-0.018,0.268-0.11c0.092-0.047,0.208-0.118,0.351-0.231l0.112-0.093
			c0.039-0.087,0.08-0.177,0.122-0.27c0.086-0.179,0.178-0.371,0.276-0.576c0.791-1.57,2.033-3.378,3.84-4.327
			c1.806-0.949,2.484,0.296,2.472,1.852c-0.006,0.778-0.184,1.634-0.479,2.332c-0.148,0.349-0.324,0.659-0.523,0.9
			c-0.199,0.292-0.421,0.633-0.658,0.697c-0.927,0.359-1.898,0.782-2.785,1.003c-0.887,0.231-1.691,0.232-2.284,0.033l-0.131-0.08
			c0,0-0.132-0.156-0.288-0.338c-0.184-0.218-0.394-0.466-0.49-0.606C554.61,281.298,554.629,281.286,554.901,281.263z"/>
		<path fill="#59597C" d="M551.592,281.671c-4.265,0.903-5.927,2.439-7.349,4.968c-1.422,2.529-4.622,0.994-4.622,0.994
			c-0.711-7.678,11.616-6.774,11.616-6.774C553.254,280.767,551.592,281.671,551.592,281.671z"/>
		<path fill="#59597C" d="M551.236,287.542c-0.593,1.897-7.467,2.801-5.571-0.812c1.897-3.613,7.231-4.969,7.231-4.969
			c0.282-0.102,0.532-0.168,0.754-0.206c0.111-0.019,0.215-0.031,0.313-0.037c0.022-0.006,0.031-0.006,0.046-0.001
			c0.053,0.021,0.109,0.126,0.177,0.256c0.135,0.26,0.286,0.621,0.286,0.621c-0.123,0.294-0.248,0.644-0.601,1.033
			c-0.448,0.39-0.841,0.819-1.181,1.27C552.007,285.6,551.533,286.594,551.236,287.542z"/>
		<path fill="#59597C" d="M560.05,284.326c0.981,0.138,1.599,1.066,1.979,2.298c0.38,1.201,0.521,2.549,0.546,2.811
			c-0.03,0.003-0.045,0.005-0.045,0.005c-1.347,0.226-2.941,0.226-4.098,0.17c-1.168-0.057-1.924-0.17-1.924-0.17
			s-1.277-0.113-2.302-0.485c-0.305-0.093-0.362-0.202-0.496-0.33c-0.117-0.128-0.218-0.274-0.293-0.442
			c-0.15-0.335-0.194-0.752-0.046-1.272c0.212-0.759,0.496-1.399,0.768-1.937c0.254-0.538,0.426-0.975,0.539-1.328
			c0.223-0.707,0.235-1.081,0.263-1.267l0.098,0.032c0.253,0.178,0.688,0.5,1.568,1.057
			C557.314,283.778,558.399,284.047,560.05,284.326z"/>
	</g>
	<path fill="#28283A" d="M716.352,191.521c-4.342,5.703-10.329,11.394-18.152,14.628c-1.951,0.815-4.013,1.419-6.175,1.884
		c-1.106,0.237-2.131,0.4-3.356,0.546l-0.67,0.079l-0.78,0.058c-0.532,0.056-1.057,0.044-1.592,0.072
		c-4.238,0.072-8.648-1.003-13.213-3.123c-4.559-2.097-9.174-5.092-13.807-8.173c-4.636-3.096-9.33-6.276-14.081-9.087
		c-4.752-2.817-9.56-5.263-14.271-7.177c-4.706-1.927-9.304-3.324-13.586-4.29c-8.579-1.948-15.838-2.196-20.845-2.195
		c-2.511,0.027-31.474,3.425-32.811,3.508c-1.335,0.088,24.953-3.177,24.953-3.177s0.71,0.064,2.041,0.183
		c1.329,0.123,3.275,0.341,5.73,0.698c4.892,0.761,11.878,2.119,19.632,5.208c3.873,1.535,7.921,3.495,11.961,5.939
		c4.047,2.434,8.078,5.347,12.066,8.64c3.996,3.296,7.94,6.969,12.101,10.8c4.178,3.813,8.573,7.83,13.893,11.403
		c2.662,1.774,5.567,3.414,8.724,4.736c3.155,1.32,6.553,2.288,10.006,2.823c0.862,0.111,1.728,0.248,2.591,0.311l1.308,0.106
		l1.413,0.054c1.074,0.023,1.269,0.047,2.427,0.027c0.822-0.038,1.646-0.049,2.466-0.122c3.283-0.226,6.533-0.756,9.663-1.559
		c6.275-1.593,12.02-4.259,16.95-7.371c4.952-3.109,9.126-6.638,12.658-10.114c7.049-6.997,11.602-13.728,14.587-18.594
		c1.487-2.444,2.565-4.45,3.298-5.89c0.726-1.424,1.132-2.153,1.18-2.28L751.933,180h-28.406
		C721.846,183,719.523,187.338,716.352,191.521z"/>
	<polygon fill="#28283A" points="567.137,167.295 547.839,178.252 567.137,189.208 563.014,178.252 	"/>
	<text transform="matrix(1 0 0 1 243.9908 80.6786)" fill="#760069" font-family="'Roboto-Bold'" font-size="30.1206">PUSH</text>
	<g>
		<path d="M228.4,270.292c-1.558,0-3.084,0.019-4.609-0.022c-0.209-0.006-0.469-0.266-0.606-0.474
			c-0.923-1.403-1.819-2.823-2.724-4.237c-0.095-0.014-0.19-0.029-0.285-0.043c-0.148,0.348-0.363,0.685-0.426,1.048
			c-0.075,0.428,0.016,0.881-0.025,1.318c-0.082,0.871,0.166,1.454,1.122,1.626c0.176,0.032,0.292,0.392,0.532,0.74
			c-2.348,0-4.464,0-6.656,0c-0.012-0.205-0.025-0.418-0.041-0.674c0.203-0.036,0.349-0.07,0.496-0.086
			c0.702-0.073,1.069-0.431,1.067-1.165c-0.007-3.862,0.012-7.723-0.011-11.585c-0.007-1.141-0.317-1.388-1.877-1.762
			c0-0.211,0-0.432,0-0.677c0.107-0.022,0.205-0.054,0.305-0.06c1.423-0.08,2.848-0.128,4.268-0.249
			c0.614-0.052,0.821,0.096,0.815,0.74c-0.029,3.084-0.013,6.168-0.013,9.252c0,0.278,0,0.556,0,1.096
			c1.282-1.249,2.435-2.309,3.508-3.444c0.519-0.549,0.049-0.816-0.477-0.916c-0.461-0.088-0.815-0.214-0.555-0.835
			c1.733,0,3.484,0,5.224,0c0.248,0.58-0.084,0.749-0.531,0.878c-1.531,0.44-2.767,1.361-3.99,2.434
			c1.318,1.909,2.589,3.796,3.925,5.636c0.229,0.315,0.717,0.519,1.122,0.609C228.446,269.549,228.561,269.755,228.4,270.292z"/>
		<path d="M206.308,270.263c-2.066,0-4.132,0-6.253,0c0-0.234,0-0.447,0-0.707c0.158-0.025,0.305-0.054,0.453-0.07
			c0.74-0.081,1.086-0.46,1.074-1.235c-0.028-1.762-0.008-3.525-0.008-5.287c0-1.593-0.153-1.8-1.687-2.259c0-0.209,0-0.428,0-0.705
			c1.582-0.095,3.129-0.203,4.678-0.256c0.157-0.005,0.415,0.296,0.469,0.497c0.08,0.301,0.021,0.639,0.021,1.158
			c0.452-0.378,0.737-0.628,1.034-0.861c1.255-0.985,2.673-1.226,4.179-0.79c1.224,0.354,1.924,1.287,2.016,2.507
			c0.132,1.753,0.129,3.519,0.114,5.279c-0.008,0.982,0.019,1.834,1.278,1.989c0.133,0.016,0.221,0.399,0.387,0.724
			c-2.252,0-4.313,0-6.425,0c-0.068-0.41-0.142-0.747,0.472-0.782c0.565-0.033,0.782-0.418,0.779-0.965
			c-0.011-1.814,0.017-3.629-0.024-5.442c-0.026-1.176-0.647-1.807-1.617-1.774c-1.185,0.041-2.188,0.927-2.191,1.951
			c-0.004,1.633,0.012,3.266-0.006,4.899c-0.008,0.686,0.238,1.118,0.924,1.334c0.219,0.069,0.359,0.387,0.535,0.591
			C206.444,270.126,206.376,270.194,206.308,270.263z"/>
		<path d="M241.24,261.412c0.434-0.36,0.724-0.606,1.021-0.845c1.245-1.004,2.658-1.236,4.173-0.835
			c1.217,0.322,2.061,1.442,2.11,2.864c0.061,1.735,0.035,3.473,0.046,5.209c0.008,1.214,0.054,1.25,1.167,1.688
			c0.2,0.079,0.309,0.388,0.46,0.59c-0.043,0.07-0.086,0.14-0.129,0.21c-1.026,0-2.052,0-3.078,0c-1.035,0-2.07,0-3.132,0
			c-0.16-0.448-0.216-0.77,0.396-0.82c0.601-0.048,0.837-0.438,0.836-1.012c-0.005-1.763,0.023-3.526-0.016-5.288
			c-0.027-1.241-0.631-1.903-1.603-1.893c-1.227,0.012-2.249,0.945-2.249,2.057c-0.001,1.581,0.014,3.163-0.006,4.744
			c-0.009,0.718,0.254,1.167,0.967,1.392c0.22,0.069,0.362,0.387,0.54,0.591c-0.048,0.059-0.097,0.118-0.145,0.177
			c-2.087,0-4.174,0-6.328,0c-0.01-0.209-0.02-0.422-0.032-0.684c0.197-0.03,0.343-0.056,0.491-0.073
			c0.743-0.085,1.082-0.485,1.074-1.247c-0.02-1.918-0.008-3.836-0.006-5.755c0.001-0.825-0.355-1.377-1.169-1.618
			c-0.544-0.161-0.54-0.175-0.52-0.864c1.563-0.094,3.133-0.198,4.706-0.262c0.137-0.006,0.38,0.239,0.408,0.397
			C241.283,260.486,241.24,260.855,241.24,261.412z"/>
		<path d="M176.903,269.137c0.655,0.703,1.858,0.783,2.579,0.027c0.487-0.511,0.898-1.238,1.015-1.925
			c0.194-1.138,0.148-2.321,0.161-3.485c0.02-1.866,0.006-3.733,0.005-5.6c-0.001-1.341-0.201-1.629-1.543-1.861
			c-0.599-0.104-0.747-0.351-0.579-0.923c2.597,0,5.207,0,7.864,0c0,0.25,0,0.491,0,0.717c-0.046,0.03-0.065,0.053-0.089,0.058
			c-1.967,0.419-1.914,0.191-1.905,2.512c0.008,2.1,0.002,4.2,0.002,6.3c0,3.997-2.721,6.293-6.712,5.663
			c-2.021-0.319-3.214-1.455-3.355-3.196c-0.133-1.639,0.948-2.731,2.468-2.494c1.415,0.221,2.071,1.708,1.245,2.892
			C177.737,268.284,177.314,268.675,176.903,269.137z"/>
		<path d="M198.649,264.699c-2.359,0-4.679,0-6.986,0c-0.244,1.741,0.461,3.439,1.639,4.048c1.595,0.825,2.964,0.42,4.941-1.488
			c0.217,0.159,0.44,0.322,0.708,0.518c-0.967,1.597-2.358,2.509-4.124,2.771c-0.831,0.123-1.721,0.101-2.549-0.048
			c-3.046-0.549-4.668-2.746-4.462-5.915c0.18-2.763,2.383-4.88,5.277-5.031c0.616-0.032,1.246,0.003,1.855,0.1
			C197.543,260.067,198.918,261.906,198.649,264.699z M195.029,263.71c-0.124-0.811-0.19-1.532-0.355-2.228
			c-0.138-0.583-0.499-1.014-1.173-1.061c-0.645-0.045-1.165,0.235-1.376,0.799c-0.298,0.796-0.452,1.645-0.688,2.552
			c1.072,0,1.918,0.004,2.764-0.002C194.426,263.768,194.652,263.738,195.029,263.71z"/>
		<path d="M252.725,269.861c-0.514,0.291-0.865,0.49-1.357,0.769c-0.067-1.501-0.124-2.761-0.18-4.016
			c0.52-0.198,0.792-0.086,1.011,0.4c0.47,1.039,1.172,1.951,2.242,2.376c0.659,0.262,1.445,0.289,2.17,0.273
			c0.631-0.014,1.006-0.484,1.102-1.122c0.102-0.676-0.178-1.177-0.784-1.454c-0.492-0.224-1.017-0.374-1.527-0.558
			c-0.704-0.254-1.445-0.438-2.103-0.78c-1.196-0.622-1.863-1.628-1.788-3.022c0.074-1.38,0.893-2.226,2.101-2.726
			c1.553-0.644,3.139-0.543,4.723-0.103c0.246,0.068,0.488,0.153,0.58,0.183c0.426-0.257,0.75-0.453,1.236-0.746
			c0.072,1.407,0.13,2.558,0.189,3.704c-0.484,0.192-0.74,0.103-0.956-0.36c-0.438-0.942-1.118-1.697-2.127-2.041
			c-0.402-0.137-0.869-0.174-1.294-0.134c-0.624,0.059-1.169,0.335-1.276,1.044c-0.107,0.713,0.23,1.209,0.892,1.454
			c0.702,0.26,1.425,0.463,2.128,0.722c0.556,0.205,1.13,0.398,1.634,0.701c2.084,1.252,2.099,4.137-0.006,5.39
			c-1.998,1.189-4.103,1.059-6.205,0.234C252.938,269.975,252.756,269.876,252.725,269.861z"/>
		<path d="M228.591,270.294c0.016-0.3,0.026-0.5,0.039-0.742c0.152-0.024,0.274-0.042,0.396-0.063
			c0.928-0.16,1.142-0.398,1.147-1.333c0.008-1.709,0.003-3.419,0.002-5.128c0-1.648-0.158-1.85-1.826-2.297c0-0.213,0-0.435,0-0.67
			c0.076-0.026,0.147-0.066,0.219-0.071c1.447-0.088,2.896-0.153,4.342-0.267c0.544-0.043,0.729,0.111,0.723,0.672
			c-0.025,2.46-0.012,4.921-0.01,7.381c0.001,1.137,0.135,1.287,1.193,1.703c0.216,0.085,0.348,0.385,0.518,0.586
			c-0.05,0.076-0.101,0.152-0.151,0.229c-1.079,0-2.158,0-3.237,0C230.862,270.294,229.778,270.294,228.591,270.294z"/>
		<path d="M231.573,257.828c-1.144-0.018-2.03-0.857-2.026-1.919c0.004-1.072,0.973-1.964,2.108-1.941
			c1.105,0.022,2.037,0.912,2.038,1.944C233.694,256.985,232.741,257.847,231.573,257.828z"/>
	</g>
	<g id="bOyePY_1_">
		
			<image overflow="visible" width="796" height="450" id="bOyePY" xlink:href="28C6A1D2632FDAD.jpg"  transform="matrix(0.118 0 0 0.118 870.3406 46.8553)">
		</image>
	</g>
	<path opacity="0.23" fill="#91408B" d="M848.702,202.984l-17.302-10.016l26.11,15.115l-10.329-22.077l-24.289,2.037l8.5,4.92
		c-28.322,51.342-60.66,79.136-84.022,93.727c-26.415,16.499-46.942,19.907-49.979,20.337
		c-20.222-0.019-494.918-0.428-540.198,0.002c-40.026,0.398-68.279-22.168-72.028-57.445c-2.549-23.996,10.526-40.595,18.526-47.91
		v-25.206c-4,2.359-6.217,4.278-6.713,4.69l-0.033-0.01c-1.488,1.052-36.41,26.275-31.707,70.549
		c4.801,45.183,41.289,75.339,90.978,75.336c0.388,0,0.78-0.016,1.17-0.02C203.318,326.579,693.06,327,698.001,327h0.056
		c47.813,17.822,92.691,19.8,110.186,19.8c1.128,0,2.141-0.008,3.035-0.021l-0.038,9.772l14.009-19.946l-13.854-20.054l-0.04,10.212
		c-10.207,0.136-41.702-0.354-78.587-9.834c7.235-3.127,15.323-7.199,23.975-12.519
		C782.478,288.588,817.999,258.485,848.702,202.984z"/>
	<g>
		<circle fill="#760069" cx="876.539" cy="244.135" r="0.616"/>
		<circle fill="#760069" cx="878.509" cy="244.135" r="0.616"/>
		<circle fill="#760069" cx="880.479" cy="244.135" r="0.616"/>
		<circle fill="#760069" cx="882.449" cy="244.135" r="0.616"/>
		<circle fill="#760069" cx="884.419" cy="244.135" r="0.616"/>
		<circle fill="#760069" cx="886.39" cy="244.135" r="0.616"/>
		<circle fill="#760069" cx="888.36" cy="244.135" r="0.616"/>
		<circle fill="#760069" cx="890.33" cy="244.135" r="0.616"/>
		<circle fill="#760069" cx="892.3" cy="244.135" r="0.616"/>
		<circle fill="#760069" cx="894.27" cy="244.135" r="0.616"/>
		<circle fill="#760069" cx="896.241" cy="244.135" r="0.616"/>
		<circle fill="#760069" cx="898.211" cy="244.135" r="0.616"/>
		<circle fill="#760069" cx="900.181" cy="244.135" r="0.616"/>
		<circle fill="#760069" cx="902.151" cy="244.135" r="0.616"/>
		<circle fill="#760069" cx="904.121" cy="244.135" r="0.616"/>
		<circle fill="#760069" cx="906.091" cy="244.135" r="0.616"/>
		<circle fill="#760069" cx="908.062" cy="244.135" r="0.616"/>
		<circle fill="#760069" cx="910.032" cy="244.135" r="0.616"/>
		<circle fill="#760069" cx="912.002" cy="244.135" r="0.616"/>
		<circle fill="#760069" cx="913.972" cy="244.135" r="0.616"/>
		<circle fill="#760069" cx="915.943" cy="244.135" r="0.616"/>
		<circle fill="#760069" cx="917.913" cy="244.135" r="0.616"/>
		<circle fill="#760069" cx="919.883" cy="244.135" r="0.616"/>
		<circle fill="#760069" cx="921.853" cy="244.135" r="0.616"/>
		<circle fill="#760069" cx="923.823" cy="244.135" r="0.616"/>
		<circle fill="#760069" cx="925.793" cy="244.135" r="0.616"/>
		<circle fill="#760069" cx="927.764" cy="244.135" r="0.616"/>
		<circle fill="#760069" cx="929.734" cy="244.135" r="0.616"/>
		<circle fill="#760069" cx="931.704" cy="244.135" r="0.616"/>
		<circle fill="#760069" cx="933.674" cy="244.135" r="0.616"/>
		<circle fill="#760069" cx="935.644" cy="244.135" r="0.616"/>
		<circle fill="#760069" cx="937.615" cy="244.135" r="0.616"/>
		<circle fill="#760069" cx="939.585" cy="244.135" r="0.616"/>
		<circle fill="#760069" cx="941.555" cy="244.135" r="0.616"/>
		<circle fill="#760069" cx="943.525" cy="244.135" r="0.616"/>
		<circle fill="#760069" cx="945.495" cy="244.135" r="0.616"/>
		<circle fill="#760069" cx="947.466" cy="244.135" r="0.616"/>
		<circle fill="#760069" cx="949.436" cy="244.135" r="0.616"/>
		<circle fill="#760069" cx="951.406" cy="244.135" r="0.616"/>
		<circle fill="#760069" cx="953.376" cy="244.135" r="0.616"/>
		<circle fill="#760069" cx="955.346" cy="244.135" r="0.616"/>
		<circle fill="#760069" cx="957.317" cy="244.135" r="0.616"/>
		<circle fill="#760069" cx="959.287" cy="244.135" r="0.616"/>
		<circle fill="#760069" cx="961.257" cy="244.135" r="0.616"/>
		<circle fill="#760069" cx="963.227" cy="244.135" r="0.616"/>
		<circle fill="#760069" cx="965.197" cy="244.135" r="0.616"/>
		<circle fill="#760069" cx="967.167" cy="244.135" r="0.616"/>
		<circle fill="#760069" cx="969.138" cy="244.135" r="0.616"/>
		<circle fill="#760069" cx="971.108" cy="244.135" r="0.616"/>
		<circle fill="#760069" cx="973.078" cy="244.135" r="0.616"/>
		<circle fill="#760069" cx="975.048" cy="244.135" r="0.616"/>
		<circle fill="#760069" cx="977.018" cy="244.135" r="0.616"/>
		<circle fill="#760069" cx="978.989" cy="244.135" r="0.616"/>
		<circle fill="#760069" cx="980.959" cy="244.135" r="0.616"/>
		<circle fill="#760069" cx="982.929" cy="244.135" r="0.616"/>
		<circle fill="#760069" cx="984.899" cy="244.135" r="0.616"/>
		<circle fill="#760069" cx="986.869" cy="244.135" r="0.616"/>
		<circle fill="#760069" cx="988.84" cy="244.135" r="0.616"/>
		<circle fill="#760069" cx="990.81" cy="244.135" r="0.616"/>
		<circle fill="#760069" cx="992.78" cy="244.135" r="0.616"/>
		<circle fill="#760069" cx="994.75" cy="244.135" r="0.616"/>
		<circle fill="#760069" cx="996.72" cy="244.135" r="0.616"/>
		<circle fill="#760069" cx="998.691" cy="244.135" r="0.616"/>
		<circle fill="#760069" cx="1000.661" cy="244.135" r="0.616"/>
	</g>
	<g>
		<circle fill="#760069" cx="1002.539" cy="244.135" r="0.616"/>
		<circle fill="#760069" cx="1004.509" cy="244.135" r="0.616"/>
		<circle fill="#760069" cx="1006.479" cy="244.135" r="0.616"/>
		<circle fill="#760069" cx="1008.449" cy="244.135" r="0.616"/>
		<circle fill="#760069" cx="1010.419" cy="244.135" r="0.616"/>
		<circle fill="#760069" cx="1012.39" cy="244.135" r="0.616"/>
		<circle fill="#760069" cx="1014.36" cy="244.135" r="0.616"/>
		<circle fill="#760069" cx="1016.33" cy="244.135" r="0.616"/>
		<circle fill="#760069" cx="1018.3" cy="244.135" r="0.616"/>
		<circle fill="#760069" cx="1020.27" cy="244.135" r="0.616"/>
		<circle fill="#760069" cx="1022.241" cy="244.135" r="0.616"/>
		<circle fill="#760069" cx="1024.211" cy="244.135" r="0.616"/>
		<circle fill="#760069" cx="1026.181" cy="244.135" r="0.616"/>
		<circle fill="#760069" cx="1028.151" cy="244.135" r="0.616"/>
		<circle fill="#760069" cx="1030.121" cy="244.135" r="0.616"/>
		<circle fill="#760069" cx="1032.092" cy="244.135" r="0.616"/>
		<circle fill="#760069" cx="1034.062" cy="244.135" r="0.616"/>
		<circle fill="#760069" cx="1036.032" cy="244.135" r="0.616"/>
		<circle fill="#760069" cx="1038.002" cy="244.135" r="0.616"/>
		<circle fill="#760069" cx="1039.972" cy="244.135" r="0.616"/>
		<circle fill="#760069" cx="1041.943" cy="244.135" r="0.616"/>
		<circle fill="#760069" cx="1043.913" cy="244.135" r="0.616"/>
		<circle fill="#760069" cx="1045.883" cy="244.135" r="0.616"/>
		<circle fill="#760069" cx="1047.853" cy="244.135" r="0.616"/>
		<circle fill="#760069" cx="1049.823" cy="244.135" r="0.616"/>
		<circle fill="#760069" cx="1051.793" cy="244.135" r="0.616"/>
		<circle fill="#760069" cx="1053.764" cy="244.135" r="0.616"/>
		<circle fill="#760069" cx="1055.734" cy="244.135" r="0.616"/>
		<circle fill="#760069" cx="1057.704" cy="244.135" r="0.616"/>
		<circle fill="#760069" cx="1059.674" cy="244.135" r="0.616"/>
		<circle fill="#760069" cx="1061.644" cy="244.135" r="0.616"/>
		<circle fill="#760069" cx="1063.615" cy="244.135" r="0.616"/>
		<circle fill="#760069" cx="1065.585" cy="244.135" r="0.616"/>
		<circle fill="#760069" cx="1067.555" cy="244.135" r="0.616"/>
		<circle fill="#760069" cx="1069.525" cy="244.135" r="0.616"/>
		<circle fill="#760069" cx="1071.495" cy="244.135" r="0.616"/>
		<circle fill="#760069" cx="1073.466" cy="244.135" r="0.616"/>
		<circle fill="#760069" cx="1075.436" cy="244.135" r="0.616"/>
		<circle fill="#760069" cx="1077.406" cy="244.135" r="0.616"/>
		<circle fill="#760069" cx="1079.376" cy="244.135" r="0.616"/>
		<circle fill="#760069" cx="1081.346" cy="244.135" r="0.616"/>
		<circle fill="#760069" cx="1083.317" cy="244.135" r="0.616"/>
		<circle fill="#760069" cx="1085.287" cy="244.135" r="0.616"/>
		<circle fill="#760069" cx="1087.257" cy="244.135" r="0.616"/>
		<circle fill="#760069" cx="1089.227" cy="244.135" r="0.616"/>
		<circle fill="#760069" cx="1091.197" cy="244.135" r="0.616"/>
		<circle fill="#760069" cx="1093.167" cy="244.135" r="0.616"/>
		<circle fill="#760069" cx="1095.138" cy="244.135" r="0.616"/>
		<circle fill="#760069" cx="1097.108" cy="244.135" r="0.616"/>
		<circle fill="#760069" cx="1099.078" cy="244.135" r="0.616"/>
		<circle fill="#760069" cx="1101.048" cy="244.135" r="0.616"/>
		<circle fill="#760069" cx="1103.018" cy="244.135" r="0.616"/>
		<circle fill="#760069" cx="1104.989" cy="244.135" r="0.616"/>
		<circle fill="#760069" cx="1106.959" cy="244.135" r="0.616"/>
		<circle fill="#760069" cx="1108.929" cy="244.135" r="0.616"/>
		<circle fill="#760069" cx="1110.899" cy="244.135" r="0.616"/>
		<circle fill="#760069" cx="1112.869" cy="244.135" r="0.616"/>
		<circle fill="#760069" cx="1114.84" cy="244.135" r="0.616"/>
		<circle fill="#760069" cx="1116.81" cy="244.135" r="0.616"/>
		<circle fill="#760069" cx="1118.78" cy="244.135" r="0.616"/>
		<circle fill="#760069" cx="1120.75" cy="244.135" r="0.616"/>
		<circle fill="#760069" cx="1122.72" cy="244.135" r="0.616"/>
		<circle fill="#760069" cx="1124.691" cy="244.135" r="0.616"/>
		<circle fill="#760069" cx="1126.661" cy="244.135" r="0.616"/>
	</g>
	<text transform="matrix(1 0 0 1 79.9907 460.3477)" fill="#257EC1" font-family="'Roboto-Regular'" font-size="16">Testeur</text>
	<g>
		<text transform="matrix(1 0 0 1 220.3348 460.3483)" fill="#257EC1" font-family="'Roboto-Regular'" font-size="16">Product Owner</text>
	</g>
	<path fill="none" stroke="#28283A" stroke-miterlimit="10" stroke-dasharray="4,2" d="M1136.245,494.078H637.787
		c-9.354,0-17.008-7.654-17.008-17.008V17.508c0-9.354,7.654-17.008,17.008-17.008h498.458c9.354,0,17.008,7.654,17.008,17.008
		V477.07C1153.253,486.424,1145.599,494.078,1136.245,494.078z"/>
	<path opacity="0.54" fill="#28283A" d="M1139.336,16h-2.645v-4.368c0-3.712-2.288-6.721-6-6.721s-6,3.009-6,6.721V16h-1.165
		c-1.104,0-2.835,1.439-2.835,2.543v15.026c0,1.104,1.731,1.431,2.835,1.431h15.81c1.104,0,1.355-0.327,1.355-1.431V18.543
		C1140.691,17.439,1140.44,16,1139.336,16z M1126.691,13.155c0-3.12,1.705-5.65,4-5.65s4,2.53,4,5.65V16h-8V13.155z
		 M1131.691,26.812v2.619c0,0.552-0.448,1.003-1,1.003s-1-0.451-1-1.003v-2.619c-1-0.393-1.246-1.326-1.246-2.414
		c0-1.444,1.345-2.614,2.789-2.614s2.336,1.17,2.336,2.614C1133.57,25.486,1133.691,26.418,1131.691,26.812z"/>
	
		<text transform="matrix(1 0 0 1 1055.9854 24.9545)" opacity="0.54" fill="#28283A" font-family="'MyriadPro-Regular'" font-size="17.4155">Sécurité</text>
	<g>
		<circle fill="#FFFFFF" stroke="#257EC1" stroke-width="3" stroke-miterlimit="10" cx="182.202" cy="455.214" r="28.895"/>
		<g>
			<circle opacity="0.47" fill="#257EC1" cx="182.202" cy="455.15" r="25.061"/>
			<g>
				<path fill="#FFFFFF" d="M194.931,475.769c0.117-6.984-2.624-12.572-6.677-15.505c2.52-2.031,4.192-5.106,4.256-8.889
					c0.105-6.293-4.28-11.348-9.791-11.44c-5.511-0.092-10.065,4.995-10.17,11.287c-0.067,4.017,1.698,7.601,4.415,9.676
					c-3.866,2.936-6.536,7.763-6.647,14.446c-0.034,2.067-0.283,3.564,0.171,3.571l11.715,2.211l11.489-1.875
					C194.146,479.258,194.897,477.836,194.931,475.769z"/>
			</g>
		</g>
	</g>
	<g>
		<circle fill="#FFFFFF" stroke="#257EC1" stroke-width="3" stroke-miterlimit="10" cx="44.629" cy="455.882" r="28.895"/>
		<g>
			<g>
				<circle opacity="0.47" fill="#257EC1" cx="44.629" cy="455.818" r="25.061"/>
				<g>
					<path fill="#FFFFFF" d="M63.818,474.875c0.094-5.642-1.271-8.107-4.545-10.477c2.035-1.641,3.386-4.082,3.437-7.138
						c0.085-5.083-3.458-9.146-7.91-9.22c-2.849-0.048-5.377,1.662-6.853,4.186c0.009,0.234,0.023,0.496,0.019,0.734
						c-0.033,1.976-0.523,3.83-1.336,5.428c0.262,2.756,1.594,5.154,3.52,6.625c-0.772,0.586-1.485,1.318-2.123,2.161
						c1.511,2.951,2.397,5.671,2.331,9.641c-0.034,2.04-0.335,4.859-0.787,4.851C49.571,481.665,63.782,477.03,63.818,474.875z"/>
					<path fill="#FFFFFF" d="M49.373,476.799c0.115-6.89-2.588-12.401-6.586-15.295c2.485-2.003,4.136-5.037,4.198-8.768
						c0.104-6.207-4.222-11.194-9.658-11.285c-5.437-0.091-9.929,4.927-10.033,11.134c-0.066,3.962,1.675,7.498,4.355,9.544
						c-3.814,2.896-5.723,5.278-5.833,11.871c-0.034,2.039,4.125,3.375,2.25,3.375l10.75,3.75l9.75,1.375
						C49.015,482.507,49.339,478.839,49.373,476.799z"/>
				</g>
			</g>
		</g>
	</g>
	<g>
		<path fill="#28283A" d="M871.316,408.206c0,0-1.51,1.818-4.614,4.979c-3.117,3.142-7.812,7.659-14.342,12.753
			c-6.524,5.078-14.862,10.814-25.281,15.849c-10.388,5-23.009,9.245-37.346,10.145c-7.067,0.412-14.646,0.176-22.21-1.432
			c-7.56-1.603-15.204-4.577-21.97-9.384c-6.763-4.768-12.611-11.323-16.498-19.159c-1.908-3.926-3.44-8.132-3.99-12.665
			l-0.092-0.853c-0.035-0.384-0.028-0.575-0.044-0.872l-0.063-1.635c-0.014-1.107,0.056-2.294,0.109-3.433
			c0.225-2.257,0.549-4.519,1.153-6.728c1.154-4.424,3.077-8.716,5.846-12.503c2.787-3.764,6.501-6.94,10.808-9.019
			c0.541-0.253,1.069-0.54,1.623-0.764l1.694-0.595c0.57-0.179,1.12-0.437,1.709-0.549l1.752-0.397l0.877-0.197
			c0.172-0.035,0.236-0.06,0.496-0.104l0.427-0.053c0.585-0.06,1.097-0.169,1.765-0.175c0.635-0.022,1.282-0.069,1.893-0.014
			c0.619,0.025,1.238,0.06,1.852,0.167c2.461,0.343,4.859,1.187,6.999,2.435c2.138,1.254,4.033,2.863,5.681,4.663
			c3.297,3.617,5.652,7.939,7.309,12.467c1.641,4.541,2.629,9.333,2.722,14.235c-0.006,1.232-0.015,2.448-0.177,3.705
			c-0.05,0.567-0.16,1.197-0.28,1.833c-0.101,0.644-0.264,1.221-0.402,1.825c-0.601,2.384-1.434,4.673-2.392,6.896
			c-1.921,4.446-4.374,8.625-7.179,12.539c-5.628,7.812-12.759,14.567-21.001,19.548c-8.25,4.959-17.642,7.973-27.197,8.502
			c-18.653,1.078-37.157-0.365-54.646-3.599c-17.507-3.239-34.038-8.413-48.961-15.014c-1.859-0.865-3.699-1.634-5.536-2.561
			c-1.782-0.91-3.55-1.814-5.306-2.71c-1.73-0.983-3.447-1.958-5.151-2.925c-1.699-0.972-3.325-2-4.969-2.984
			c-6.528-3.99-12.726-7.972-18.85-11.475c-12.235-7.008-24.318-11.856-35.501-14.378c-5.594-1.201-10.889-2.136-15.84-2.518
			c-1.235-0.126-2.445-0.249-3.629-0.37c-1.183-0.143-2.352-0.098-3.488-0.155c-2.277-0.066-4.447-0.129-6.508-0.189
			c-0.515-0.013-1.024-0.026-1.525-0.039c-0.501,0.02-0.995,0.039-1.483,0.058c-0.975,0.038-1.921,0.075-2.839,0.111
			c-1.836,0.067-3.558,0.129-5.16,0.188c-0.801,0.034-1.573,0.045-2.313,0.095c-0.737,0.073-1.445,0.143-2.121,0.211
			c-1.353,0.134-2.582,0.256-3.682,0.366c-4.405,0.438-6.754,0.671-6.754,0.671s2.343-0.29,6.736-0.833
			c1.099-0.136,2.326-0.288,3.677-0.455c0.676-0.083,1.382-0.171,2.119-0.262c0.739-0.069,1.512-0.098,2.313-0.151
			c1.604-0.096,3.327-0.199,5.165-0.309c0.92-0.052,1.868-0.107,2.845-0.162c0.489-0.028,0.984-0.056,1.487-0.085
			c0.503,0.004,1.013,0.008,1.531,0.012c2.07,0.023,4.25,0.048,6.537,0.073c1.143,0.037,2.317-0.028,3.509,0.094
			c1.193,0.1,2.411,0.202,3.656,0.306c4.989,0.296,10.339,1.141,16.008,2.252c1.406,0.335,2.835,0.675,4.286,1.021
			c1.452,0.345,2.934,0.667,4.386,1.175c2.917,0.961,5.985,1.778,8.973,3.056c1.509,0.598,3.038,1.203,4.586,1.816
			c1.508,0.704,3.034,1.416,4.578,2.137c0.77,0.365,1.554,0.714,2.325,1.097c0.762,0.401,1.528,0.805,2.298,1.211
			c1.534,0.822,3.112,1.609,4.657,2.486c6.211,3.464,12.474,7.392,19.017,11.293c1.642,0.958,3.283,1.97,4.963,2.907
			c1.681,0.931,3.376,1.87,5.084,2.816c1.765,0.877,3.543,1.761,5.334,2.652c1.744,0.857,3.633,1.627,5.461,2.453
			c14.83,6.367,31.239,11.267,48.554,14.459c17.328,3.136,35.573,4.497,54.048,3.362c9.023-0.535,17.979-3.428,25.826-8.189
			c7.854-4.78,14.679-11.299,20.067-18.814c2.706-3.746,5.074-7.753,6.91-11.961c0.915-2.102,1.705-4.256,2.263-6.439
			c0.126-0.543,0.285-1.102,0.365-1.622c0.101-0.521,0.203-1.048,0.26-1.655c0.147-1.078,0.16-2.221,0.17-3.339
			c-0.068-4.507-0.976-9.039-2.501-13.297c-1.534-4.252-3.733-8.283-6.7-11.555c-1.482-1.63-3.159-3.057-5.011-4.154
			c-1.855-1.089-3.892-1.808-5.99-2.11c-0.522-0.097-1.052-0.125-1.583-0.149c-0.538-0.053-1.039-0.007-1.552,0.002
			c-0.483-0.014-1.104,0.103-1.659,0.158l-0.427,0.051l-0.344,0.079l-0.8,0.179l-1.599,0.354c-0.539,0.097-1.034,0.336-1.553,0.495
			l-1.54,0.531c-0.503,0.201-0.979,0.462-1.47,0.689c-3.903,1.868-7.281,4.723-9.857,8.171c-2.555,3.469-4.363,7.453-5.456,11.581
			c-0.573,2.061-0.88,4.175-1.101,6.281c-0.048,1.05-0.122,2.053-0.114,3.128l0.058,1.635c0.012,0.247,0.014,0.602,0.034,0.759
			L727.6,409c0.491,4.117,1.888,8.142,3.657,11.881c3.612,7.488,9.13,13.823,15.565,18.464c6.439,4.681,13.778,7.639,21.11,9.278
			c3.667,0.856,7.363,1.28,10.992,1.556c0.91,0.051,1.815,0.102,2.716,0.153c0.899,0.012,1.794,0.024,2.685,0.036
			c1.77,0.056,3.577-0.07,5.341-0.116c6.985-0.333,13.657-1.585,19.837-3.24c6.188-1.673,11.907-3.827,17.105-6.23
			c10.411-4.805,18.812-10.362,25.399-15.305c6.581-4.974,11.402-9.333,14.581-12.407
			C869.763,409.988,871.316,408.206,871.316,408.206z"/>
	</g>
	<polygon fill="#28283A" points="497.723,394.259 499.562,409.146 485.74,403.297 	"/>
	<g>
		<circle fill="#569FCC" cx="446.541" cy="401.212" r="18.856"/>
		<text transform="matrix(1 0 0 1 440.0823 408.0078)" fill="#FFFFFF" font-family="'MyriadPro-Regular'" font-size="23.154">5</text>
		<g>
			<g>
				<path fill="#569FCC" d="M445.191,379c0,0-0.167-0.562-0.286-1.406c-0.127-0.844-0.21-1.969-0.214-3.094
					c0.003-1.125,0.085-2.25,0.213-3.094c0.119-0.844,0.287-1.406,0.287-1.406s0.168,0.562,0.287,1.406
					c0.127,0.844,0.21,1.969,0.213,3.094c-0.004,1.125-0.087,2.25-0.214,3.094C445.359,378.438,445.191,379,445.191,379z"/>
			</g>
			<g>
				<path fill="#569FCC" d="M445.191,431c0,0-0.167-0.562-0.286-1.406c-0.127-0.844-0.21-1.969-0.214-3.094
					c0.003-1.125,0.085-2.25,0.213-3.094c0.119-0.844,0.287-1.406,0.287-1.406s0.168,0.562,0.287,1.406
					c0.127,0.844,0.21,1.969,0.213,3.094c-0.004,1.125-0.087,2.25-0.214,3.094C445.359,430.438,445.191,431,445.191,431z"/>
			</g>
		</g>
		<g>
			<g>
				<path fill="#569FCC" d="M467.691,401.5c0,0,0.562-0.167,1.406-0.286c0.844-0.127,1.969-0.21,3.094-0.214
					c1.125,0.003,2.25,0.085,3.094,0.213c0.844,0.119,1.406,0.287,1.406,0.287s-0.562,0.168-1.406,0.287
					c-0.844,0.127-1.969,0.21-3.094,0.213c-1.125-0.004-2.25-0.087-3.094-0.214C468.254,401.667,467.691,401.5,467.691,401.5z"/>
			</g>
			<g>
				<path fill="#569FCC" d="M415.691,401.5c0,0,0.562-0.167,1.406-0.286c0.844-0.127,1.969-0.21,3.094-0.214
					c1.125,0.003,2.25,0.085,3.094,0.213c0.844,0.119,1.406,0.287,1.406,0.287s-0.562,0.168-1.406,0.287
					c-0.844,0.127-1.969,0.21-3.094,0.213c-1.125-0.004-2.25-0.087-3.094-0.214C416.254,401.667,415.691,401.5,415.691,401.5z"/>
			</g>
		</g>
		<g>
			<g>
				<path fill="#569FCC" d="M461.678,385.297c0,0,0.28-0.516,0.792-1.196c0.507-0.686,1.243-1.541,2.036-2.339
					c0.798-0.793,1.651-1.531,2.338-2.037c0.681-0.513,1.197-0.791,1.197-0.791s-0.279,0.517-0.791,1.197
					c-0.507,0.687-1.244,1.54-2.037,2.338c-0.798,0.793-1.653,1.529-2.339,2.036C462.194,385.018,461.678,385.297,461.678,385.297z"
					/>
			</g>
			<g>
				<path fill="#569FCC" d="M424.909,422.067c0,0,0.279-0.516,0.792-1.196c0.507-0.686,1.243-1.541,2.036-2.339
					c0.798-0.793,1.651-1.531,2.338-2.037c0.681-0.513,1.197-0.791,1.197-0.791s-0.279,0.517-0.791,1.197
					c-0.507,0.687-1.244,1.54-2.037,2.338c-0.798,0.793-1.653,1.529-2.339,2.036C425.425,421.787,424.909,422.067,424.909,422.067z"
					/>
			</g>
		</g>
		<g>
			<g>
				<path fill="#569FCC" d="M461.678,415.703c0,0,0.516,0.28,1.196,0.792c0.686,0.507,1.541,1.243,2.339,2.036
					c0.793,0.798,1.531,1.651,2.037,2.338c0.513,0.681,0.791,1.197,0.791,1.197s-0.517-0.279-1.197-0.791
					c-0.687-0.507-1.54-1.244-2.338-2.037c-0.793-0.798-1.529-1.653-2.036-2.339C461.958,416.219,461.678,415.703,461.678,415.703z"
					/>
			</g>
			<g>
				<path fill="#569FCC" d="M424.909,378.933c0,0,0.516,0.279,1.196,0.792c0.686,0.507,1.541,1.243,2.339,2.036
					c0.793,0.798,1.531,1.651,2.037,2.338c0.513,0.681,0.791,1.197,0.791,1.197s-0.517-0.279-1.197-0.791
					c-0.687-0.507-1.54-1.244-2.338-2.037c-0.793-0.798-1.529-1.653-2.036-2.339C425.188,379.449,424.909,378.933,424.909,378.933z"
					/>
			</g>
		</g>
	</g>
	
		<image overflow="visible" width="459" height="250" xlink:href="28C6A1D2632FDB3.png"  transform="matrix(0.1618 0 0 0.1618 978.5859 66.9592)">
	</image>
	<text transform="matrix(1 0 0 1 353.0313 460.3907)" fill="#569FCC" font-family="'Roboto-Bold'" font-size="30.1206">DEPLOIEMENT</text>
	<path fill="#28283A" d="M544.598,266.105H289.815c-2.2,0-4-1.8-4-4v-21.99c0-2.2,1.8-4,4-4h254.783c2.2,0,4,1.8,4,4v21.99
		C548.598,264.305,546.797,266.105,544.598,266.105z"/>
	<text transform="matrix(1 0 0 1 293.7742 254.7701)"><tspan x="0" y="0" fill="#FFFFFF" font-family="'Roboto-Light'" font-size="12.5217">TESTS</tspan><tspan x="37.101" y="0" fill="#FFFFFF" font-family="'Roboto-Regular'" font-size="12.5217"> </tspan><tspan x="40.212" y="0" fill="#FFFFFF" font-family="'Roboto-Bold'" font-size="12.5217">FONCTIONNELS</tspan><tspan x="131.875" y="0" fill="#FFFFFF" font-family="'Roboto-Regular'" font-size="12.5217"> </tspan><tspan x="134.988" y="0" fill="#FFFFFF" font-family="'Roboto-Light'" font-size="12.5217">/ TESTS</tspan><tspan x="180.104" y="0" fill="#FFFFFF" font-family="'Roboto-Regular'" font-size="12.5217"> </tspan><tspan x="183.216" y="0" fill="#FFFFFF" font-family="'Roboto-Bold'" font-size="12.5217">UNITAIRES</tspan></text>
	<g id="CyZAid_1_">
		
			<image overflow="visible" width="227" height="300" id="CyZAid" xlink:href="28C6A1D2632FDB5.jpg"  transform="matrix(0.3652 0 0 0.3652 176.1678 137.9025)">
		</image>
	</g>
	<g>
		<polygon fill="#569FCC" points="292.855,363.588 332.472,357.891 335.998,382.416 296.361,387.967 		"/>
		<g>
			<g>
				<g>
					<path fill="#304F8C" d="M332.333,356.355l-39.285,5.649c-0.796,0.115-1.862,0.797-1.747,1.597l3.83,26.632
						c0.115,0.8,1.393,1.597,2.19,1.483l39.285-5.649c0.796-0.115,1.305-1.168,1.19-1.969l-3.83-26.632
						C333.851,356.666,333.13,356.241,332.333,356.355z M335.978,382.27l-39.616,5.697l-3.506-24.379l39.616-5.697L335.978,382.27z"
						/>
					<path fill="#6F86C1" d="M332.333,356.355l-39.285,5.649c-0.831,0.12-1.872,0.726-1.747,1.597l3.83,26.632
						c0.124,0.863,1.367,1.601,2.189,1.483l39.285-5.649c0.828-0.119,1.315-1.094,1.19-1.969l-3.83-26.632
						C333.848,356.649,333.226,356.227,332.333,356.355z M337.796,384.099c0.113,0.787-0.47,1.865-1.19,1.969l-39.285,5.649
						c-0.722,0.104-2.08-0.721-2.189-1.483l-3.83-26.632c-0.107-0.747,1.003-1.49,1.747-1.597l39.285-5.649
						c0.549-0.079,1.503,0.213,1.633,1.111L337.796,384.099z"/>
				</g>
				
					<rect x="290.383" y="387.4" transform="matrix(0.9898 -0.1423 0.1423 0.9898 -51.9726 49.005)" fill="#556EAD" width="52.339" height="0.77"/>
				<path fill="#748FC4" d="M316.575,388.175l-0.376,0.052l-25.371,3.647l0.031,0.122c0,0,1.432,0.445,3.545,0.141
					c2.114-0.304,11.383-1.637,11.383-1.637l10.508-1.511l0.362-0.052l10.814-1.555c0,0,9.558-1.371,11.732-1.683
					c2.173-0.312,3.488-1.148,3.488-1.148v-0.127L316.575,388.175z"/>
				<path fill="#748FC4" d="M313.018,387.904c0,0,0.223,0.746,0.812,0.661c0.589-0.085,2.899-0.417,2.899-0.417
					s2.317-0.333,2.913-0.419c0.596-0.086,0.612-0.866,0.612-0.866L313.018,387.904z"/>
			</g>
			<polygon opacity="0.15" fill="#FFFFFF" points="297.747,362.884 335.998,382.416 332.472,357.891 			"/>
		</g>
	</g>
	<g>
		
			<rect x="25.949" y="347.836" transform="matrix(0.9941 0.1088 -0.1088 0.9941 40.4711 -4.0622)" fill="#569FCC" width="63.003" height="41.811"/>
		<line fill="none" stroke="#000000" stroke-miterlimit="10" x1="20.819" y1="382.304" x2="90.28" y2="389.909"/>
		<g>
			<path fill="#556EAD" d="M61.527,399.97c-0.788-0.627-0.146-6.798-0.146-6.798l-0.034,0.032l-0.41-0.991l-6.12-1.445l-6.948,0.903
				c0,0-0.72,6.162-1.624,6.604c-0.904,0.442-3.925,0.76-2.366,0.931c1.558,0.171,9.893,1.113,9.893,1.113s8.328,0.912,9.887,1.082
				C65.216,401.569,62.315,400.597,61.527,399.97z"/>
			<path opacity="0.1" d="M61.41,392.908l-0.029-0.015l-0.408-1.014l-6.119-1.457l-6.958,0.99c0,0-0.154,1.33-0.35,2.461
				l13.668,1.496C61.272,394.223,61.41,392.908,61.41,392.908z"/>
			<path fill="#748FC4" d="M64.135,401.451c0,0-0.071-0.008-0.159-0.017l-20.375-2.231c-0.088-0.01-0.159-0.017-0.159-0.017l0,0
				c0,0,0.071,0.008,0.159,0.017l20.375,2.231C64.064,401.443,64.135,401.451,64.135,401.451L64.135,401.451z"/>
		</g>
		<path fill="#304F8C" d="M92.578,349.252L27.2,342.094c-0.955-0.105-1.991,0.109-2.098,1.085l-4.78,43.662
			c-0.107,0.976,0.811,1.834,1.766,1.939l65.378,7.158c0.955,0.105,2.209-0.516,2.316-1.492l4.78-43.662
			C94.67,349.808,93.533,349.357,92.578,349.252z M87.175,386.688l-62.629-6.857l3.865-35.3l62.629,6.857L87.175,386.688z"/>
		<path fill="#556EAD" d="M20.322,386.842c-0.107,0.976,0.811,1.835,1.766,1.939l65.378,7.158c0.955,0.105,2.209-0.516,2.316-1.492
			l0.434-3.968l-69.461-7.605L20.322,386.842z"/>
		<polygon opacity="0.15" fill="#FFFFFF" points="40.271,345.83 91.04,351.388 87.175,386.688 80.932,386.005 		"/>
	</g>
	<g>
		
			<rect x="203.823" y="350.136" transform="matrix(0.866 0.5 -0.5 0.866 208.5647 -56.6656)" fill="#569FCC" width="12.375" height="21.351"/>
		<g>
			<path fill="#304F8C" d="M221.326,351.619c0.035-0.14-0.119-0.134-0.25-0.21l-1.59-0.918c-0.127-0.073-0.233-0.135-0.271-0.157
				l-6.511-3.76c-0.87-0.502-2.421-0.609-2.93,0.271l-1.022,1.769c-0.023,0.041-0.086,0.149-0.16,0.277l-0.455,0.787
				c-0.074,0.128-0.137,0.237-0.16,0.277l-0.135,0.233c-0.023,0.041-0.086,0.149-0.16,0.277l-0.455,0.787
				c-0.074,0.128-0.137,0.237-0.16,0.277l-0.248,0.43c-0.023,0.041-0.086,0.149-0.16,0.277l-0.455,0.787
				c-0.074,0.128-0.137,0.237-0.16,0.277l-8.243,14.276c-0.509,0.881,0.031,2.742,0.9,3.244l8.463,4.887
				c0.87,0.502,2.252-0.249,2.761-1.13l11.972-20.733C222.37,353.03,222.055,352.164,221.326,351.619z M210.381,371.793
				l-10.392-6.001l10.001-17.32l10.392,6.001L210.381,371.793z"/>
			<circle fill="#556EAD" cx="204.223" cy="371.211" r="1.225"/>
			<path opacity="0.15" fill="#FFFFFF" d="M221.326,351.619c0.035-0.14-0.119-0.134-0.25-0.21l-1.59-0.918
				c-0.127-0.073-0.233-0.135-0.271-0.157l-3.985-2.301l-3.188,22.884l9.857-17.07C222.37,353.03,222.055,352.164,221.326,351.619z"
				/>
			<polygon fill="#556EAD" points="217.418,351.607 217.418,351.607 214.82,350.106 214.82,350.106 214.82,350.106 214.82,350.106 
				217.418,351.607 217.418,351.607 			"/>
			<circle fill="#556EAD" cx="216.526" cy="349.898" r="0.284"/>
		</g>
	</g>
	<g>
		
			<rect x="129.752" y="378.02" transform="matrix(0.9673 -0.2537 0.2537 0.9673 -95.1495 48.8853)" fill="#569FCC" width="24.468" height="30.76"/>
		<g>
			<path fill="#304F8C" d="M147.761,374.229l-19.966,5.236c-1.012,0.265-1.793,1.212-1.544,2.162l7.803,29.754
				c0.249,0.95,1.419,1.485,2.431,1.219l19.966-5.236c1.012-0.265,1.52-1.24,1.271-2.19l-7.803-29.754
				C149.67,374.47,148.772,373.963,147.761,374.229z M155.772,404.169l-21.301,5.586l-7.035-26.824l21.301-5.586L155.772,404.169z"
				/>
			<circle fill="#556EAD" cx="146.214" cy="408.311" r="0.999"/>
			<path opacity="0.15" fill="#FFFFFF" d="M149.919,375.42c-0.249-0.95-1.146-1.457-2.158-1.191l-14.581,3.824l23.389,22.724
				L149.919,375.42z"/>
			
				<ellipse transform="matrix(0.9673 -0.2537 0.2537 0.9673 -91.5075 47.4677)" fill="#556EAD" cx="138.31" cy="378.569" rx="0.303" ry="0.287"/>
		</g>
	</g>
	<g>
		<g>
			<path fill="#760069" d="M931.463,290.672h-7.607c0.495-1.748,2.007-2.868,3.726-2.868
				C929.561,287.804,930.915,288.794,931.463,290.672 M923.752,293.258h11.201c0-0.235,0.026-0.469,0.026-0.705
				c0-1.854-0.391-3.341-1.328-4.593c-1.458-1.996-3.646-3.138-6.069-3.138c-1.928,0-3.778,0.829-5.21,2.333
				c-1.303,1.379-1.981,3.125-1.981,5.084c0,1.879,0.756,3.781,2.084,5.156c1.407,1.452,3.179,2.178,5.237,2.178
				c3.092,0,5.565-1.737,6.764-4.804h-3.516c-0.677,1.12-1.9,1.745-3.331,1.745C925.419,296.513,923.96,295.264,923.752,293.258"/>
			<path fill="#760069" d="M940.073,292.301c0-2.395,1.748-4.191,4.016-4.191c2.269,0,4.068,1.9,4.068,4.139
				c0,2.318-1.747,4.113-4.225,4.113C941.847,296.362,940.073,294.619,940.073,292.301 M939.943,286.359v-5.641h-3.206v18.505h3.206
				v-1.129c1.304,1.009,2.713,1.475,4.355,1.475c1.773,0,3.364-0.569,4.589-1.63c1.693-1.447,2.631-3.504,2.631-5.743
				c0-2.056-0.833-4.035-2.37-5.443c-1.303-1.225-2.998-1.851-4.824-1.851C942.57,284.899,941.192,285.316,939.943,286.359"/>
			<path fill="#760069" d="M953.758,285.248h3.136v13.976h-3.136V285.248z M953.758,280.719h3.136v3.096h-3.136V280.719z"/>
			<path fill="#760069" d="M962.285,292.113c0-2.262,1.821-4.004,3.98-4.004c2.056,0,3.928,1.82,3.928,4.16
				c0,2.157-1.847,3.978-3.876,3.978C964.132,296.247,962.285,294.532,962.285,292.113 M970.596,299.223h3.11v-13.975h-3.136v1.677
				c-0.948-1.35-2.405-2.022-4.435-2.022c-2.107,0-3.772,0.673-5.177,2.146c-1.3,1.346-2.003,3.166-2.003,5.116
				c0,4.159,3.095,7.364,7.258,7.364c2.159,0,3.564-0.624,4.344-2.033L970.596,299.223z"/>
		</g>
		<polygon fill="#760069" points="891.847,305.337 900.438,305.337 909.637,296.138 918.836,305.337 927.427,305.337 
			913.933,291.847 927.533,278.246 918.942,278.246 909.637,287.552 900.331,278.246 891.741,278.246 905.341,291.847 		"/>
	</g>
	<g>
		<path fill="#760069" d="M882.383,278.193l2.335,5.954h0.03l2.335-5.954h1.269v7.328h-0.991v-2.899l0.101-2.979l-0.025-0.005
			l-2.376,5.884h-0.659l-2.365-5.869l-0.025,0.006l0.096,2.964v2.899h-0.991v-7.328H882.383z"/>
	</g>
	<g>
		<path fill="#760069" d="M882.383,298.009l2.335,5.954h0.03l2.335-5.954h1.269v7.328h-0.991v-2.899l0.101-2.979l-0.025-0.005
			l-2.376,5.884h-0.659l-2.365-5.869l-0.025,0.006l0.096,2.964v2.899h-0.991v-7.328H882.383z"/>
	</g>
	<g>
		<path fill="#760069" d="M886.273,293.542h-3.07l-0.694,1.888h-1.012l2.834-7.328h0.851l2.788,7.328h-1.012L886.273,293.542z
			 M883.51,292.711h2.466l-1.208-3.337h-0.03L883.51,292.711z"/>
	</g>
	<circle fill="#760069" cx="893.549" cy="291.952" r="1.809"/>
</g>
</svg>
