<?xml version="1.0" encoding="utf-8"?>
<!-- Generator: Adobe Illustrator 17.0.0, SVG Export Plug-In . SVG Version: 6.00 Build 0)  -->
<!DOCTYPE svg PUBLIC "-//W3C//DTD SVG 1.1//EN" "http://www.w3.org/Graphics/SVG/1.1/DTD/svg11.dtd">
<svg version="1.1" id="Calque_1" xmlns="http://www.w3.org/2000/svg" xmlns:xlink="http://www.w3.org/1999/xlink" x="0px" y="0px"
	 width="82.75px" height="62.889px" viewBox="0 0 82.75 62.889" enable-background="new 0 0 82.75 62.889" xml:space="preserve">
<g>
	<circle fill="#FFFFFF" cx="50.21" cy="25.105" r="5.477"/>
	<circle fill="#FFFFFF" cx="5.477" cy="50.666" r="5.477"/>
	<path fill="#FFFFFF" d="M33.207,28.985c0,0-15.234-3.652-27.786,1.598L0.209,49.071l10.602,1.595l1.939-7.531v18.03
		c0,0,13,3.88,23,0V41.081l17.296-11.183l-6.48-8.79L33.207,28.985z"/>
	<circle fill="#FFFFFF" cx="20.527" cy="13.224" r="12.083"/>
	<polygon fill="#FFFFFF" points="36.75,22.823 36.75,0 82.75,0 82.75,39 45.417,39 52.859,34 77.75,34 77.75,5 41.75,5 
		41.75,20.084 	"/>
	
		<rect x="47.012" y="18.791" transform="matrix(0.6541 -0.7565 0.7565 0.6541 4.1011 48.2221)" fill="#FFFFFF" width="15.519" height="1.674"/>
</g>
</svg>
