<?xml version="1.0" encoding="utf-8"?>
<!-- Generator: Adobe Illustrator 17.0.0, SVG Export Plug-In . SVG Version: 6.00 Build 0)  -->
<!DOCTYPE svg PUBLIC "-//W3C//DTD SVG 1.1//EN" "http://www.w3.org/Graphics/SVG/1.1/DTD/svg11.dtd">
<svg version="1.1" id="Calque_1" xmlns="http://www.w3.org/2000/svg" xmlns:xlink="http://www.w3.org/1999/xlink" x="0px" y="0px"
	 width="89.066px" height="68.513px" viewBox="0 0 89.066 68.513" enable-background="new 0 0 89.066 68.513" xml:space="preserve">
<g>
	<g>
		<g>
			<path fill="#FFFFFF" d="M65.191,0h-51.15c-1.521,0-2.765,1.244-2.765,2.765v30.414c0,1.521,1.244,2.765,2.765,2.765h51.15
				c1.521,0,2.765-1.244,2.765-2.765V2.765C67.956,1.244,66.712,0,65.191,0z M63.975,27.044c0,1.521-1.244,2.765-2.765,2.765H18.023
				c-1.521,0-2.765-1.244-2.765-2.765V6.134c0-1.521,1.244-2.765,2.765-2.765H61.21c1.521,0,2.765,1.244,2.765,2.765V27.044z"/>
			<rect x="30.458" y="34.561" fill="#FFFFFF" width="18.317" height="7.74"/>
		</g>
		<rect x="28.016" y="40.573" fill="#FFFFFF" width="23.201" height="1.728"/>
	</g>
	<path fill="#FFFFFF" d="M65.311,41.45h-7.46c-1.824,0-3.316,1.492-3.316,3.316v20.145c0,1.824,1.492,3.316,3.316,3.316h7.46
		c1.824,0,3.316-1.492,3.316-3.316V44.766C68.627,42.942,67.135,41.45,65.311,41.45z M61.397,67.424
		c-0.763,0-1.382-0.618-1.382-1.382c0-0.763,0.619-1.382,1.382-1.382c0.763,0,1.382,0.619,1.382,1.382
		C62.778,66.805,62.16,67.424,61.397,67.424z M67.245,64.384H55.916V44.075h11.329V64.384z"/>
	<path fill="#FFFFFF" d="M44.532,43.437H14.069c-1.824,0-3.316,1.492-3.316,3.316v18.444c0,1.824,1.492,3.316,3.316,3.316h30.464
		c1.824,0,3.316-1.492,3.316-3.316V46.753C47.848,44.929,46.356,43.437,44.532,43.437z M42.771,66.233H12.515V45.717h30.256V66.233z
		 M45.171,57.684c-0.839,0-1.52-0.68-1.52-1.52c0-0.839,0.68-1.52,1.52-1.52c0.839,0,1.52,0.68,1.52,1.52
		C46.691,57.004,46.011,57.684,45.171,57.684z"/>
	<g>
		<path fill="#FFFFFF" d="M29.204,14.493l1.63,1.63c0.027-0.028,0.052-0.056,0.08-0.084c4.68-4.68,12.232-4.731,16.979-0.161
			l1.457-1.457C43.759,8.915,34.765,8.937,29.204,14.493z"/>
		<path fill="#FFFFFF" d="M32.663,17.788c-0.027,0.027-0.053,0.056-0.08,0.084l1.516,1.516c2.857-2.852,7.467-2.873,10.355-0.07
			l1.691-1.691C42.364,14.021,36.377,14.073,32.663,17.788z"/>
		<path fill="#FFFFFF" d="M35.893,21.089c-0.016,0.016-0.028,0.033-0.044,0.048l3.392,3.392l3.563-3.563
			C40.851,19.149,37.796,19.187,35.893,21.089z"/>
		<path fill="#FFFFFF" d="M35.893,21.089c-0.016,0.016-0.028,0.033-0.044,0.048l3.392,3.392l3.563-3.563
			C40.851,19.149,37.796,19.187,35.893,21.089z"/>
		<path fill="#FFFFFF" d="M35.893,21.089c-0.016,0.016-0.028,0.033-0.044,0.048l3.392,3.392l3.563-3.563
			C40.851,19.149,37.796,19.187,35.893,21.089z"/>
	</g>
	<g>
		<path fill="#FFFFFF" d="M57.388,53.18l0.732,0.732c0.012-0.012,0.023-0.025,0.036-0.038c2.102-2.102,5.493-2.125,7.625-0.072
			l0.654-0.654C63.925,50.675,59.886,50.685,57.388,53.18z"/>
		<path fill="#FFFFFF" d="M58.942,54.66c-0.012,0.012-0.024,0.025-0.036,0.038l0.681,0.681c1.283-1.281,3.354-1.29,4.65-0.031
			l0.759-0.759C63.298,52.968,60.61,52.991,58.942,54.66z"/>
		<path fill="#FFFFFF" d="M60.392,56.142c-0.007,0.007-0.013,0.015-0.02,0.022l1.523,1.523l1.6-1.6
			C62.619,55.271,61.247,55.288,60.392,56.142z"/>
		<path fill="#FFFFFF" d="M60.392,56.142c-0.007,0.007-0.013,0.015-0.02,0.022l1.523,1.523l1.6-1.6
			C62.619,55.271,61.247,55.288,60.392,56.142z"/>
		<path fill="#FFFFFF" d="M60.392,56.142c-0.007,0.007-0.013,0.015-0.02,0.022l1.523,1.523l1.6-1.6
			C62.619,55.271,61.247,55.288,60.392,56.142z"/>
	</g>
	<g>
		<path fill="#FFFFFF" d="M20.915,53.169l1.273,1.273c0.021-0.022,0.041-0.044,0.062-0.065c3.653-3.653,9.547-3.693,13.253-0.126
			l1.137-1.137C32.276,48.815,25.255,48.832,20.915,53.169z"/>
		<path fill="#FFFFFF" d="M23.615,55.741c-0.021,0.021-0.041,0.044-0.062,0.065l1.183,1.183c2.23-2.226,5.828-2.242,8.082-0.054
			l1.32-1.32C31.187,52.801,26.514,52.841,23.615,55.741z"/>
		<path fill="#FFFFFF" d="M26.136,58.318c-0.012,0.012-0.022,0.026-0.034,0.038l2.648,2.648l2.781-2.781
			C30.006,56.804,27.621,56.833,26.136,58.318z"/>
		<path fill="#FFFFFF" d="M26.136,58.318c-0.012,0.012-0.022,0.026-0.034,0.038l2.648,2.648l2.781-2.781
			C30.006,56.804,27.621,56.833,26.136,58.318z"/>
		<path fill="#FFFFFF" d="M26.136,58.318c-0.012,0.012-0.022,0.026-0.034,0.038l2.648,2.648l2.781-2.781
			C30.006,56.804,27.621,56.833,26.136,58.318z"/>
	</g>
	
		<path fill="none" stroke="#FFFFFF" stroke-linecap="round" stroke-linejoin="round" stroke-miterlimit="10" stroke-dasharray="1,2" d="
		M67.956,55.975c0,0,11.5,0.908,14.195-6.072c2.694-6.98-3.316-9.747-3.316-11.472c0-1.725-1.865-9.186,6.424-11.258
		s1.451-30.55-25.697-13.957"/>
	
		<path fill="none" stroke="#FFFFFF" stroke-linecap="round" stroke-linejoin="round" stroke-miterlimit="10" stroke-dasharray="1,2" d="
		M58.906,59.092c0,0-5.673,0.834-7.689,0c-2.016-0.834-4.548-11.61-14.577-11.403"/>
	
		<path fill="none" stroke="#FFFFFF" stroke-linecap="round" stroke-linejoin="round" stroke-miterlimit="10" stroke-dasharray="1,2" d="
		M14.385,55.975c0,0-6.424-0.542-9.74-6.072s-6.01-19.443-2.487-27.822s10.988-9.829,18.757-7.964"/>
</g>
</svg>
