<svg xmlns="http://www.w3.org/2000/svg" viewBox="0 0 124.4 80.1" enable-background="new 0 0 124.4 80.1"><g fill="#fff"><path d="M72.9 18.7H32.3c-1.2 0-2.2 1-2.2 2.2v24.2c0 1.2 1 2.2 2.2 2.2h40.6c1.2 0 2.2-1 2.2-2.2V20.9c0-1.2-1-2.2-2.2-2.2zm-1 21.5c0 1.2-1 2.2-2.2 2.2H35.4c-1.2 0-2.2-1-2.2-2.2V23.6c0-1.2 1-2.2 2.2-2.2h34.3c1.2 0 2.2 1 2.2 2.2v16.6zM45.3 46.2h14.6v6.1H45.3zM43.4 51h18.4v1.4H43.4zM73 51.7h-5.9c-1.4 0-2.6 1.2-2.6 2.6v16c0 1.4 1.2 2.6 2.6 2.6H73c1.4 0 2.6-1.2 2.6-2.6v-16c0-1.5-1.1-2.6-2.6-2.6zm-3.1 20.6c-.6 0-1.1-.5-1.1-1.1 0-.6.5-1.1 1.1-1.1.6 0 1.1.5 1.1 1.1 0 .6-.5 1.1-1.1 1.1zm4.6-2.4h-9V53.7h9v16.2zM56.5 53.2H32.3c-1.4 0-2.6 1.2-2.6 2.6v14.7c0 1.4 1.2 2.6 2.6 2.6h24.2c1.4 0 2.6-1.2 2.6-2.6V55.9c0-1.5-1.2-2.7-2.6-2.7zm-1.4 18.2h-24V55.1h24v16.3zm1.9-6.8c-.7 0-1.2-.5-1.2-1.2s.5-1.2 1.2-1.2 1.2.5 1.2 1.2c0 .6-.5 1.2-1.2 1.2zM44.3 30.2l1.3 1.3.1-.1c3.7-3.7 9.7-3.8 13.5-.1l1.2-1.2c-4.5-4.3-11.7-4.3-16.1.1zM47.1 32.9c-.1 0-.1 0 0 0l1.1 1.3c2.3-2.3 5.9-2.3 8.2-.1l1.3-1.3c-2.9-2.9-7.7-2.9-10.6.1zM49.6 35.5l2.7 2.7 2.8-2.8c-1.5-1.5-4-1.4-5.5.1zM49.6 35.5l2.7 2.7 2.8-2.8c-1.5-1.5-4-1.4-5.5.1zM49.6 35.5l2.7 2.7 2.8-2.8c-1.5-1.5-4-1.4-5.5.1zM66.7 61l.6.6c1.7-1.7 4.4-1.7 6.1-.1l.5-.5c-2-2-5.2-2-7.2 0zM67.9 62.2l.5.6c1-1 2.7-1 3.7 0l.6-.6c-1.3-1.4-3.4-1.4-4.8 0zM69.1 63.3l1.2 1.2 1.3-1.3c-.7-.6-1.8-.5-2.5.1zM69.1 63.3l1.2 1.2 1.3-1.3c-.7-.6-1.8-.5-2.5.1zM69.1 63.3l1.2 1.2 1.3-1.3c-.7-.6-1.8-.5-2.5.1zM37.7 61l1 1v-.1c2.9-2.9 7.6-2.9 10.5-.1l.9-.9c-3.3-3.4-8.9-3.4-12.4.1zM39.9 63s-.1.1 0 0l.9 1c1.8-1.8 4.6-1.8 6.4 0l1-1c-2.3-2.3-6-2.3-8.3 0zM41.9 65.1l2.1 2.1 2.2-2.2c-1.2-1.1-3.1-1.1-4.3.1zM41.9 65.1l2.1 2.1 2.2-2.2c-1.2-1.1-3.1-1.1-4.3.1zM41.9 65.1l2.1 2.1 2.2-2.2c-1.2-1.1-3.1-1.1-4.3.1zM75.9 63.6h-.8c-.2 0-.4-.2-.4-.4s.2-.4.4-.4h.8c.2 0 .4.2.4.4 0 .3-.2.4-.4.4zm1.6 0c-.2 0-.4-.2-.4-.4s.2-.4.4-.4.5 0 .8-.1c.2 0 .4.1.4.4 0 .2-.1.4-.4.4-.3 0-.5.1-.8.1zm2.4-.3c-.2 0-.4-.1-.4-.3 0-.2.1-.4.3-.5.3 0 .5-.1.8-.2.2-.1.4.1.5.3.1.2-.1.4-.3.5-.3.1-.6.1-.9.2zm2.2-.7c-.2 0-.3-.1-.4-.3-.1-.2 0-.4.2-.5.2-.1.5-.2.7-.3.2-.1.4 0 .5.2.1.2 0 .4-.2.5-.2.1-.5.2-.8.3.1.1.1.1 0 .1zm2.1-1.1c-.1 0-.2-.1-.3-.2-.1-.2-.1-.4.1-.6.2-.1.4-.3.6-.5.2-.1.4-.1.6 0 .1.2.1.4 0 .6-.2.2-.4.4-.6.5-.2.2-.3.2-.4.2zm1.7-1.7c-.1 0-.1 0-.2-.1-.2-.1-.2-.4-.1-.5.1-.2.2-.4.4-.7.1-.2.3-.3.5-.2.2.1.3.3.2.5-.1.3-.3.5-.4.7-.2.2-.3.3-.4.3zm.8-2.2c-.3-.1-.4-.3-.4-.5.1-.3.1-.5.1-.7 0-.2.2-.4.4-.3.2 0 .4.2.3.4 0 .3-.1.5-.1.8.1.2-.1.3-.3.3zm.2-2.4c-.2 0-.4-.1-.4-.3 0-.2-.1-.5-.2-.7-.1-.2.1-.4.3-.5.2-.1.4.1.5.3.1.3.1.5.2.8 0 .2-.2.4-.4.4zm-.8-2.2c-.1 0-.3-.1-.3-.2-.1-.2-.3-.4-.4-.6-.1-.2-.1-.4.1-.6.2-.1.4-.1.6.1.2.2.3.5.5.7.1.2 0 .4-.1.5-.3.1-.4.1-.4.1zm-1.5-1.9c-.1 0-.2 0-.3-.1-.2-.2-.4-.4-.5-.6-.1-.2-.1-.4.1-.6.2-.1.4-.1.6.1.1.2.3.4.5.6.1.2.1.4 0 .6h-.4zm-1.3-2.5h.4-.4c0-.3 0-.5-.1-.8 0-.2.2-.4.4-.4s.4.2.4.4c0 .3 0 .5.1.7l-.4.1h-.4zm.3-2c-.2 0-.4-.2-.4-.4 0-.3 0-.5.1-.8 0-.2.2-.4.5-.3.2 0 .4.2.3.5 0 .3-.1.5-.1.8 0 .1-.2.2-.4.2zm.6-2.3H84c-.2-.1-.3-.3-.2-.5.1-.3.2-.5.4-.8.1-.2.4-.2.5-.1.2.1.2.4.1.5-.1.2-.2.4-.3.7 0 .1-.2.2-.3.2zm1.3-1.9c-.1 0-.2 0-.3-.1-.1-.2-.1-.4 0-.6.2-.2.4-.4.7-.5.2-.1.4-.1.6.1.1.2.1.4-.1.6-.2.1-.4.3-.6.5-.1-.1-.2 0-.3 0zm2-1.3c-.2 0-.3-.1-.4-.2-.1-.2 0-.4.2-.5.2-.1.5-.2.8-.3.2-.1.4.1.5.3.1.2-.1.4-.3.5-.3.1-.5.2-.7.3 0-.1 0-.1-.1-.1zm2.3-.8c-.1 0-.3-.1-.3-.2-.1-.2-.1-.4.1-.6.2-.1.4-.3.5-.5.1-.2.4-.2.6 0 .2.1.2.4 0 .6-.2.2-.4.4-.7.6-.1.1-.2.1-.2.1zm1.3-1.9H91c-.2-.1-.3-.3-.2-.5.1-.2.1-.5.2-.7 0-.2.3-.4.5-.3.2 0 .4.3.3.5-.1.3-.1.6-.2.8-.2.1-.3.2-.5.2zm.4-2.3c-.2 0-.4-.2-.4-.4v-.8c0-.2.1-.4.4-.4.2 0 .4.1.4.4v.8c0 .2-.2.4-.4.4zm-.3-2.4c-.2 0-.3-.1-.4-.3-.1-.2-.1-.5-.2-.7-.1-.2 0-.4.3-.5.2-.1.4 0 .5.3.1.3.2.5.2.8 0 .1-.1.3-.4.4zm-.8-2.2c-.1 0-.3-.1-.4-.2-.1-.2-.2-.5-.4-.7-.1-.2 0-.4.1-.5.2-.1.4 0 .5.1.1.2.3.5.4.7.1.2 0 .4-.2.5.1.1 0 .1 0 .1zm-1.3-2c-.1 0-.2-.1-.3-.2-.2-.2-.3-.4-.5-.6-.1-.2-.1-.4 0-.6.2-.1.4-.1.6 0 .2.2.4.4.5.6.1.2.1.4-.1.6 0 .1-.1.2-.2.2zm-20.3-.1c-.1 0-.3-.1-.3-.2-.1-.2-.1-.4.1-.5.2-.1.5-.3.7-.4.2-.1.4 0 .5.1.1.2 0 .4-.1.5-.2.1-.5.3-.7.4 0 .1-.1.1-.2.1zm2.1-1.2c-.1 0-.3-.1-.4-.2-.1-.2 0-.4.2-.5.2-.1.5-.2.7-.4.2-.1.4 0 .5.2.1.2 0 .4-.2.5-.2.1-.5.2-.7.4h-.1zm16.5-.4c-.1 0-.2 0-.2-.1-.2-.2-.4-.3-.6-.4-.2-.1-.2-.4-.1-.6.1-.2.4-.2.6-.1.2.2.5.3.7.5.2.1.2.4.1.6-.3 0-.4.1-.5.1zm-14.3-.6c-.2 0-.3-.1-.4-.2-.1-.2 0-.4.2-.5.3-.1.5-.2.7-.3.2-.1.4 0 .5.2.1.2 0 .4-.2.5-.2.1-.5.2-.7.3h-.1zm12.3-.7h-.2c-.2-.1-.5-.2-.7-.3-.2-.1-.3-.3-.2-.5.1-.2.3-.3.5-.2.3.1.5.2.8.3.2.1.3.3.2.5-.1.2-.3.2-.4.2zm-10.1-.1c-.2 0-.3-.1-.4-.3-.1-.2.1-.4.3-.5.3-.1.5-.2.8-.2.2-.1.4.1.5.3.1.2-.1.4-.3.5-.2.1-.5.1-.7.2h-.2zm2.3-.6c-.2 0-.4-.1-.4-.3 0-.2.1-.4.3-.5.3-.1.5-.1.8-.1.2 0 .4.1.4.3 0 .2-.1.4-.3.4-.2.1-.5.2-.8.2zm5.5 0c-.3-.1-.6-.1-.8-.1-.2 0-.4-.2-.3-.4 0-.2.2-.4.4-.3.3 0 .5.1.8.1.2 0 .4.3.3.5 0 .1-.2.2-.4.2zm-3.1-.3c-.2 0-.4-.2-.4-.4s.2-.4.4-.4h.8c.2 0 .4.2.4.4s-.2.4-.4.4H80zM64.7 66.4c-.2 0-.4-.2-.4-.4s.2-.4.4-.4h.8c.2 0 .4.2.4.4s-.2.4-.4.4c-.2-.1-.5 0-.8 0 .1 0 .1 0 0 0zm-1.5-.1c-.1 0-.1 0 0 0-.3 0-.6-.1-.9-.1-.2 0-.4-.3-.3-.5 0-.2.3-.4.5-.3.2 0 .5.1.7.1.2 0 .4.2.4.4-.1.3-.2.4-.4.4zm3.9-.1c-.2 0-.4-.1-.4-.4 0-.2.1-.4.3-.4.5-.1.8-.1.8-.1.2 0 .4.1.5.3 0 .2-.1.4-.3.5 0 0-.3 0-.9.1.1 0 0 0 0 0zm-6-.8c-.1 0-.2-.1-.3-.2-.1-.2-.3-.4-.5-.7-.1-.2-.1-.4.1-.5.2-.1.4-.1.5.1.1.2.3.5.4.6.1.2.1.4-.1.6.1.1 0 .1-.1.1zm-1.3-2c-.1 0-.3-.1-.3-.2-.1-.2-.3-.4-.4-.7-.1-.2-.1-.4.1-.5.2-.1.4-.1.5.1.1.2.3.5.4.7.1.2.1.4-.1.5 0 0-.1.1-.2.1zm-1.3-2c-.1 0-.2-.1-.3-.2-.2-.2-.3-.4-.5-.6-.1-.2-.1-.4 0-.6.2-.1.4-.1.6 0 .2.2.3.4.5.6.1.2.1.4-.1.6 0 .2-.1.2-.2.2zm-1.6-1.8c-.1 0-.2 0-.3-.1-.2-.2-.4-.3-.6-.5-.2-.1-.2-.4-.1-.6.1-.2.4-.2.6-.1.2.2.4.4.6.5.2.1.2.4 0 .6 0 .2-.1.2-.2.2zM55 58.2c-.1 0-.1 0-.2-.1-.2-.1-.4-.2-.7-.3-.2-.1-.3-.3-.2-.5.1-.2.3-.3.5-.2.3.1.5.2.7.4.2.1.3.4.1.5.1.1 0 .2-.2.2zm-2.2-.9c-.3-.1-.6-.1-.8-.2-.2 0-.4-.2-.3-.5 0-.2.2-.4.5-.3.3 0 .5.1.8.2.2.1.3.3.3.5-.1.2-.3.3-.5.3zm-2.6-.3c-.2 0-.4-.2-.4-.4s.2-.4.4-.4h.2c.2 0 .4.2.4.4s-.1.4-.3.4h-.3zM32.5 63.6s-.3 0-.9-.1c-.2 0-.4-.3-.3-.5 0-.2.3-.4.5-.3.5.1.7.1.7.1.2 0 .4.2.4.4s-.2.4-.4.4zm-2.3-.6h-.1c-.2-.1-.5-.2-.8-.3-.2-.1-.3-.3-.2-.5.1-.2.3-.3.5-.2.2.1.5.2.7.3.2.1.3.3.2.5 0 .1-.1.2-.3.2zm-2.1-1c-.1 0-.1 0-.2-.1-.2-.1-.5-.3-.7-.5-.2 0-.2-.3-.1-.4.1-.2.4-.2.6-.1.2.2.4.3.6.4.2.1.2.4.1.5-.1.2-.2.2-.3.2zm-1.9-1.4c-.1 0-.2 0-.3-.1l-.6-.6c-.1-.2-.1-.4 0-.6.2-.1.4-.1.6 0 .2.2.3.4.5.6.2.2.2.4 0 .6 0 0-.1.1-.2.1zm-1.4-1.9c-.1 0-.3-.1-.3-.2-.1-.2-.3-.5-.4-.7-.1-.2 0-.4.2-.5.2-.1.4 0 .5.2.1.2.2.5.4.7.1.2 0 .4-.1.5h-.3zm-1.1-2.2c-.2 0-.3-.1-.4-.3-.1-.2-.2-.5-.3-.8-.1-.2 0-.4.2-.5.2-.1.4 0 .5.2.1.3.2.5.3.7.1.2 0 .4-.2.5 0 .2 0 .2-.1.2zm-.7-2.2c-.2 0-.3-.1-.4-.3-.1-.3-.1-.5-.2-.8-.1-.2.1-.4.3-.5.2-.1.4.1.5.3.1.3.1.5.2.8.1.2-.1.4-.3.5H23zm-.6-2.3c-.2 0-.3-.1-.4-.3-.1-.3-.1-.5-.2-.8 0-.2.1-.4.3-.5.2 0 .4.1.5.3.1.3.1.5.2.8 0 .2-.1.4-.4.5zm-.5-2.4c-.2 0-.4-.1-.4-.3 0-.3-.1-.5-.1-.8 0-.2.1-.4.3-.4.2 0 .4.1.4.3 0 .3.1.5.1.8.2.2 0 .4-.3.4.1 0 0 0 0 0zm-.3-2.3c-.2 0-.4-.2-.4-.4 0-.3 0-.5-.1-.8 0-.2.2-.4.4-.4s.4.2.4.4c0 .3 0 .5.1.8.1.1-.1.3-.4.4.1 0 .1 0 0 0zm-.1-2.5c-.2 0-.4-.1-.4-.4v-.8c0-.2.2-.4.4-.4s.4.2.4.4v.8c0 .2-.2.4-.4.4zm.1-2.3c-.2 0-.4-.2-.4-.4 0-.3 0-.5.1-.8 0-.2.2-.4.4-.4s.4.2.4.4c0 .3 0 .5-.1.8 0 .2-.2.4-.4.4zm.3-2.4c-.1 0-.1 0 0 0-.3 0-.4-.2-.4-.5s.1-.5.2-.8c0-.2.3-.4.5-.3.2 0 .4.3.3.5-.1.3-.1.5-.1.8-.2.2-.4.3-.5.3zm.5-2.3h-.1c-.2-.1-.3-.3-.3-.5.1-.3.2-.5.3-.8.1-.2.3-.3.5-.2.2.1.3.3.2.5-.1.2-.2.5-.3.7 0 .2-.1.3-.3.3zm.9-2.2h-.2c-.2-.1-.3-.3-.2-.5.1-.2.3-.5.4-.7.1-.2.4-.2.5-.1.2.1.2.4.1.5-.1.2-.3.4-.4.7.1 0 0 .1-.2.1zm1.3-2c-.1 0-.2 0-.2-.1-.2-.1-.2-.4-.1-.6.2-.2.4-.4.5-.6.2-.2.4-.2.6 0 .2.1.2.4 0 .6-.2.2-.3.4-.5.6-.1.1-.2.1-.3.1zm1.7-1.7c-.1 0-.2-.1-.3-.2-.1-.2-.1-.4.1-.6.2-.2.4-.3.7-.5.2-.1.4-.1.6.1.1.2.1.4-.1.5-.2.1-.4.3-.6.4-.2.3-.3.3-.4.3zm2-1.2c-.2 0-.3-.1-.4-.2-.1-.2 0-.4.2-.5.3-.1.5-.2.8-.3.2-.1.4 0 .5.2.1.2 0 .4-.2.5-.2.1-.5.2-.7.3h-.2zm9.4-.4c-.3-.1-.5-.3-.4-.5.1-.2.3-.3.5-.3.2.1.3.3.3.5s-.2.3-.4.3zm-1.6-.3c-.3 0-.6-.1-.8-.1-.2 0-.4-.2-.3-.4 0-.2.2-.4.4-.3.3 0 .5.1.8.1.2 0 .4.2.3.5 0 .1-.2.2-.4.2zm-5.5 0c-.2 0-.4-.1-.4-.3 0-.2.1-.4.3-.5.3-.1.5-.1.8-.1.2 0 .4.1.4.3 0 .2-.1.4-.3.4-.2.1-.5.2-.8.2.1 0 0 0 0 0zm3.2-.2h-.7c-.2 0-.4-.2-.4-.4s.2-.4.4-.4H34c.2 0 .4.2.4.4-.2.2-.4.4-.6.4z"/></g><path fill="#3A8287" d="M9.7 47h2.1l2.3-2.2 2.3 2.2h2.1l-3.4-3.2 3.4-3.2h-2.1l-2.3 2.2-2.3-2.2H9.7l3.4 3.2L9.7 47z"/><path fill="#B60051" d="M16 56.2h1.3l1.3-1.3 1.3 1.3h1.3l-2-1.9 2-1.9H20l-1.4 1.3-1.4-1.3H16l2 1.9-2 1.9z"/><path fill="#D6D4CF" d="M15 15.1h1.7l1.9-1.8 1.9 1.8h1.7l-2.7-2.6 2.8-2.7h-1.7l-1.9 1.8-1.9-1.8H15l2.8 2.7-2.8 2.6z"/><path fill="#8E9D1E" d="M95.2 26.1h1.7l1.9-1.8 1.9 1.8h1.7l-2.7-2.6 2.8-2.7h-1.7l-1.9 1.8-1.9-1.8h-1.7l2.8 2.7-2.9 2.6z"/><path fill="#3A8287" d="M42.4 15.8h1l1-1 1 1h1l-1.5-1.5 1.5-1.5h-1l-1.1 1-1.1-1h-1l1.5 1.5-1.3 1.5zM109.8 48.1h1.3l1.3-1.3 1.3 1.3h1.3l-2-1.9 2-1.9h-1.3l-1.4 1.3-1.4-1.3h-1.3l2 1.9-1.8 1.9z"/><path fill="#D6D4CF" d="M95.2 60.7h2.1l2.3-2.2 2.3 2.2h2.1l-3.4-3.2 3.4-3.2h-2.1l-2.3 2.2-2.3-2.2h-2.1l3.4 3.2-3.4 3.2z"/><path fill="#B60051" d="M65.8 11.8h1.3l1.3-1.3 1.3 1.3H71l-2-1.9L71 8h-1.3l-1.4 1.3L67.1 8h-1.3l2 1.9-2 1.9z"/></svg>