<?xml version="1.0" encoding="utf-8"?>
<!-- Generator: Adobe Illustrator 18.1.0, SVG Export Plug-In . SVG Version: 6.00 Build 0)  -->
<svg version="1.1" id="Calque_1" xmlns="http://www.w3.org/2000/svg" xmlns:xlink="http://www.w3.org/1999/xlink" x="0px" y="0px"
	 viewBox="0 0 124.4 80.1" enable-background="new 0 0 124.4 80.1" xml:space="preserve">
<g>
	<g>
		<g>
			<path fill="#FFFFFF" d="M72.9,18.7H32.3c-1.2,0-2.2,1-2.2,2.2v24.2c0,1.2,1,2.2,2.2,2.2h40.6c1.2,0,2.2-1,2.2-2.2V20.9
				C75.1,19.7,74.1,18.7,72.9,18.7z M71.9,40.2c0,1.2-1,2.2-2.2,2.2H35.4c-1.2,0-2.2-1-2.2-2.2V23.6c0-1.2,1-2.2,2.2-2.2h34.3
				c1.2,0,2.2,1,2.2,2.2V40.2z"/>
			<rect x="45.3" y="46.2" fill="#FFFFFF" width="14.6" height="6.1"/>
		</g>
		<rect x="43.4" y="51" fill="#FFFFFF" width="18.4" height="1.4"/>
	</g>
	<path fill="#FFFFFF" d="M73,51.7h-5.9c-1.4,0-2.6,1.2-2.6,2.6v16c0,1.4,1.2,2.6,2.6,2.6H73c1.4,0,2.6-1.2,2.6-2.6v-16
		C75.6,52.8,74.5,51.7,73,51.7z M69.9,72.3c-0.6,0-1.1-0.5-1.1-1.1c0-0.6,0.5-1.1,1.1-1.1c0.6,0,1.1,0.5,1.1,1.1
		C71,71.8,70.5,72.3,69.9,72.3z M74.5,69.9h-9V53.7h9V69.9z"/>
	<path fill="#FFFFFF" d="M56.5,53.2H32.3c-1.4,0-2.6,1.2-2.6,2.6v14.7c0,1.4,1.2,2.6,2.6,2.6h24.2c1.4,0,2.6-1.2,2.6-2.6V55.9
		C59.1,54.4,57.9,53.2,56.5,53.2z M55.1,71.4h-24V55.1h24V71.4z M57,64.6c-0.7,0-1.2-0.5-1.2-1.2c0-0.7,0.5-1.2,1.2-1.2
		c0.7,0,1.2,0.5,1.2,1.2C58.2,64,57.7,64.6,57,64.6z"/>
	<g>
		<path fill="#FFFFFF" d="M44.3,30.2l1.3,1.3c0,0,0,0,0.1-0.1c3.7-3.7,9.7-3.8,13.5-0.1l1.2-1.2C55.9,25.8,48.7,25.8,44.3,30.2z"/>
		<path fill="#FFFFFF" d="M47.1,32.9C47,32.9,47,32.9,47.1,32.9l1.1,1.3c2.3-2.3,5.9-2.3,8.2-0.1l1.3-1.3
			C54.8,29.9,50,29.9,47.1,32.9z"/>
		<path fill="#FFFFFF" d="M49.6,35.5C49.6,35.5,49.6,35.5,49.6,35.5l2.7,2.7l2.8-2.8C53.6,33.9,51.1,34,49.6,35.5z"/>
		<path fill="#FFFFFF" d="M49.6,35.5C49.6,35.5,49.6,35.5,49.6,35.5l2.7,2.7l2.8-2.8C53.6,33.9,51.1,34,49.6,35.5z"/>
		<path fill="#FFFFFF" d="M49.6,35.5C49.6,35.5,49.6,35.5,49.6,35.5l2.7,2.7l2.8-2.8C53.6,33.9,51.1,34,49.6,35.5z"/>
	</g>
	<g>
		<path fill="#FFFFFF" d="M66.7,61l0.6,0.6c0,0,0,0,0,0c1.7-1.7,4.4-1.7,6.1-0.1l0.5-0.5C71.9,59,68.7,59,66.7,61z"/>
		<path fill="#FFFFFF" d="M67.9,62.2C67.9,62.2,67.9,62.2,67.9,62.2l0.5,0.6c1-1,2.7-1,3.7,0l0.6-0.6C71.4,60.8,69.3,60.8,67.9,62.2
			z"/>
		<path fill="#FFFFFF" d="M69.1,63.3C69.1,63.3,69.1,63.3,69.1,63.3l1.2,1.2l1.3-1.3C70.9,62.6,69.8,62.7,69.1,63.3z"/>
		<path fill="#FFFFFF" d="M69.1,63.3C69.1,63.3,69.1,63.3,69.1,63.3l1.2,1.2l1.3-1.3C70.9,62.6,69.8,62.7,69.1,63.3z"/>
		<path fill="#FFFFFF" d="M69.1,63.3C69.1,63.3,69.1,63.3,69.1,63.3l1.2,1.2l1.3-1.3C70.9,62.6,69.8,62.7,69.1,63.3z"/>
	</g>
	<g>
		<path fill="#FFFFFF" d="M37.7,61l1,1c0,0,0,0,0-0.1c2.9-2.9,7.6-2.9,10.5-0.1l0.9-0.9C46.8,57.5,41.2,57.5,37.7,61z"/>
		<path fill="#FFFFFF" d="M39.9,63C39.9,63,39.8,63.1,39.9,63l0.9,1c1.8-1.8,4.6-1.8,6.4,0l1-1C45.9,60.7,42.2,60.7,39.9,63z"/>
		<path fill="#FFFFFF" d="M41.9,65.1C41.9,65.1,41.9,65.1,41.9,65.1l2.1,2.1l2.2-2.2C45,63.9,43.1,63.9,41.9,65.1z"/>
		<path fill="#FFFFFF" d="M41.9,65.1C41.9,65.1,41.9,65.1,41.9,65.1l2.1,2.1l2.2-2.2C45,63.9,43.1,63.9,41.9,65.1z"/>
		<path fill="#FFFFFF" d="M41.9,65.1C41.9,65.1,41.9,65.1,41.9,65.1l2.1,2.1l2.2-2.2C45,63.9,43.1,63.9,41.9,65.1z"/>
	</g>
	<path fill="#FFFFFF" d="M75.9,63.6C75.9,63.6,75.9,63.6,75.9,63.6c-0.5,0-0.8,0-0.8,0c-0.2,0-0.4-0.2-0.4-0.4
		c0-0.2,0.2-0.4,0.4-0.4c0,0,0.3,0,0.8,0c0.2,0,0.4,0.2,0.4,0.4C76.3,63.5,76.1,63.6,75.9,63.6z M77.5,63.6c-0.2,0-0.4-0.2-0.4-0.4
		c0-0.2,0.2-0.4,0.4-0.4c0.2,0,0.5,0,0.8-0.1c0.2,0,0.4,0.1,0.4,0.4c0,0.2-0.1,0.4-0.4,0.4C78,63.5,77.8,63.6,77.5,63.6
		C77.5,63.6,77.5,63.6,77.5,63.6z M79.9,63.3c-0.2,0-0.4-0.1-0.4-0.3c0-0.2,0.1-0.4,0.3-0.5c0.3,0,0.5-0.1,0.8-0.2
		c0.2-0.1,0.4,0.1,0.5,0.3c0.1,0.2-0.1,0.4-0.3,0.5C80.5,63.2,80.2,63.2,79.9,63.3C79.9,63.3,79.9,63.3,79.9,63.3z M82.1,62.6
		c-0.2,0-0.3-0.1-0.4-0.3c-0.1-0.2,0-0.4,0.2-0.5c0.2-0.1,0.5-0.2,0.7-0.3c0.2-0.1,0.4,0,0.5,0.2c0.1,0.2,0,0.4-0.2,0.5
		c-0.2,0.1-0.5,0.2-0.8,0.3C82.2,62.6,82.2,62.6,82.1,62.6z M84.2,61.5c-0.1,0-0.2-0.1-0.3-0.2c-0.1-0.2-0.1-0.4,0.1-0.6
		c0.2-0.1,0.4-0.3,0.6-0.5c0.2-0.1,0.4-0.1,0.6,0c0.1,0.2,0.1,0.4,0,0.6c-0.2,0.2-0.4,0.4-0.6,0.5C84.4,61.5,84.3,61.5,84.2,61.5z
		 M85.9,59.8c-0.1,0-0.1,0-0.2-0.1c-0.2-0.1-0.2-0.4-0.1-0.5c0.1-0.2,0.2-0.4,0.4-0.7c0.1-0.2,0.3-0.3,0.5-0.2
		c0.2,0.1,0.3,0.3,0.2,0.5c-0.1,0.3-0.3,0.5-0.4,0.7C86.1,59.7,86,59.8,85.9,59.8z M86.7,57.6C86.7,57.6,86.7,57.6,86.7,57.6
		c-0.3-0.1-0.4-0.3-0.4-0.5c0.1-0.3,0.1-0.5,0.1-0.7c0-0.2,0.2-0.4,0.4-0.3c0.2,0,0.4,0.2,0.3,0.4c0,0.3-0.1,0.5-0.1,0.8
		C87.1,57.5,86.9,57.6,86.7,57.6z M86.9,55.2c-0.2,0-0.4-0.1-0.4-0.3c0-0.2-0.1-0.5-0.2-0.7c-0.1-0.2,0.1-0.4,0.3-0.5
		c0.2-0.1,0.4,0.1,0.5,0.3c0.1,0.3,0.1,0.5,0.2,0.8C87.3,55,87.1,55.2,86.9,55.2C86.9,55.2,86.9,55.2,86.9,55.2z M86.1,53
		c-0.1,0-0.3-0.1-0.3-0.2c-0.1-0.2-0.3-0.4-0.4-0.6c-0.1-0.2-0.1-0.4,0.1-0.6c0.2-0.1,0.4-0.1,0.6,0.1c0.2,0.2,0.3,0.5,0.5,0.7
		c0.1,0.2,0,0.4-0.1,0.5C86.2,53,86.1,53,86.1,53z M84.6,51.1c-0.1,0-0.2,0-0.3-0.1c-0.2-0.2-0.4-0.4-0.5-0.6
		c-0.1-0.2-0.1-0.4,0.1-0.6c0.2-0.1,0.4-0.1,0.6,0.1c0.1,0.2,0.3,0.4,0.5,0.6c0.1,0.2,0.1,0.4,0,0.6C84.8,51.1,84.7,51.1,84.6,51.1z
		 M83.3,48.6l0.4,0L83.3,48.6c0-0.3,0-0.5-0.1-0.8c0-0.2,0.2-0.4,0.4-0.4c0.2,0,0.4,0.2,0.4,0.4c0,0.3,0,0.5,0.1,0.7l-0.4,0.1
		L83.3,48.6z M83.6,46.6C83.6,46.6,83.6,46.6,83.6,46.6c-0.2,0-0.4-0.2-0.4-0.4c0-0.3,0-0.5,0.1-0.8c0-0.2,0.2-0.4,0.5-0.3
		c0.2,0,0.4,0.2,0.3,0.5c0,0.3-0.1,0.5-0.1,0.8C84,46.5,83.8,46.6,83.6,46.6z M84.2,44.3c-0.1,0-0.1,0-0.2,0
		c-0.2-0.1-0.3-0.3-0.2-0.5c0.1-0.3,0.2-0.5,0.4-0.8c0.1-0.2,0.4-0.2,0.5-0.1c0.2,0.1,0.2,0.4,0.1,0.5c-0.1,0.2-0.2,0.4-0.3,0.7
		C84.5,44.2,84.3,44.3,84.2,44.3z M85.5,42.4c-0.1,0-0.2,0-0.3-0.1c-0.1-0.2-0.1-0.4,0-0.6c0.2-0.2,0.4-0.4,0.7-0.5
		c0.2-0.1,0.4-0.1,0.6,0.1c0.1,0.2,0.1,0.4-0.1,0.6c-0.2,0.1-0.4,0.3-0.6,0.5C85.7,42.3,85.6,42.4,85.5,42.4z M87.5,41.1
		c-0.2,0-0.3-0.1-0.4-0.2c-0.1-0.2,0-0.4,0.2-0.5c0.2-0.1,0.5-0.2,0.8-0.3c0.2-0.1,0.4,0.1,0.5,0.3c0.1,0.2-0.1,0.4-0.3,0.5
		c-0.3,0.1-0.5,0.2-0.7,0.3C87.6,41.1,87.6,41.1,87.5,41.1z M89.8,40.3c-0.1,0-0.3-0.1-0.3-0.2c-0.1-0.2-0.1-0.4,0.1-0.6
		c0.2-0.1,0.4-0.3,0.5-0.5c0.1-0.2,0.4-0.2,0.6,0c0.2,0.1,0.2,0.4,0,0.6c-0.2,0.2-0.4,0.4-0.7,0.6C89.9,40.3,89.8,40.3,89.8,40.3z
		 M91.1,38.4c0,0-0.1,0-0.1,0c-0.2-0.1-0.3-0.3-0.2-0.5c0.1-0.2,0.1-0.5,0.2-0.7c0-0.2,0.3-0.4,0.5-0.3c0.2,0,0.4,0.3,0.3,0.5
		c-0.1,0.3-0.1,0.6-0.2,0.8C91.4,38.3,91.3,38.4,91.1,38.4z M91.5,36.1c-0.2,0-0.4-0.2-0.4-0.4c0-0.2,0-0.5,0-0.8
		c0-0.2,0.1-0.4,0.4-0.4c0.2,0,0.4,0.1,0.4,0.4c0,0.3,0,0.6,0,0.8C91.9,35.9,91.7,36.1,91.5,36.1C91.5,36.1,91.5,36.1,91.5,36.1z
		 M91.2,33.7c-0.2,0-0.3-0.1-0.4-0.3c-0.1-0.2-0.1-0.5-0.2-0.7c-0.1-0.2,0-0.4,0.3-0.5c0.2-0.1,0.4,0,0.5,0.3
		c0.1,0.3,0.2,0.5,0.2,0.8C91.6,33.4,91.5,33.6,91.2,33.7C91.2,33.7,91.2,33.7,91.2,33.7z M90.4,31.5c-0.1,0-0.3-0.1-0.4-0.2
		c-0.1-0.2-0.2-0.5-0.4-0.7c-0.1-0.2,0-0.4,0.1-0.5c0.2-0.1,0.4,0,0.5,0.1c0.1,0.2,0.3,0.5,0.4,0.7c0.1,0.2,0,0.4-0.2,0.5
		C90.5,31.5,90.4,31.5,90.4,31.5z M89.1,29.5c-0.1,0-0.2-0.1-0.3-0.2c-0.2-0.2-0.3-0.4-0.5-0.6c-0.1-0.2-0.1-0.4,0-0.6
		c0.2-0.1,0.4-0.1,0.6,0c0.2,0.2,0.4,0.4,0.5,0.6c0.1,0.2,0.1,0.4-0.1,0.6C89.3,29.4,89.2,29.5,89.1,29.5z M68.8,29.4
		c-0.1,0-0.3-0.1-0.3-0.2c-0.1-0.2-0.1-0.4,0.1-0.5c0.2-0.1,0.5-0.3,0.7-0.4c0.2-0.1,0.4,0,0.5,0.1c0.1,0.2,0,0.4-0.1,0.5
		c-0.2,0.1-0.5,0.3-0.7,0.4C69,29.4,68.9,29.4,68.8,29.4z M70.9,28.2c-0.1,0-0.3-0.1-0.4-0.2c-0.1-0.2,0-0.4,0.2-0.5
		c0.2-0.1,0.5-0.2,0.7-0.4c0.2-0.1,0.4,0,0.5,0.2c0.1,0.2,0,0.4-0.2,0.5c-0.2,0.1-0.5,0.2-0.7,0.4C71,28.2,71,28.2,70.9,28.2z
		 M87.4,27.8c-0.1,0-0.2,0-0.2-0.1c-0.2-0.2-0.4-0.3-0.6-0.4c-0.2-0.1-0.2-0.4-0.1-0.6c0.1-0.2,0.4-0.2,0.6-0.1
		c0.2,0.2,0.5,0.3,0.7,0.5c0.2,0.1,0.2,0.4,0.1,0.6C87.6,27.7,87.5,27.8,87.4,27.8z M73.1,27.2c-0.2,0-0.3-0.1-0.4-0.2
		c-0.1-0.2,0-0.4,0.2-0.5c0.3-0.1,0.5-0.2,0.7-0.3c0.2-0.1,0.4,0,0.5,0.2c0.1,0.2,0,0.4-0.2,0.5c-0.2,0.1-0.5,0.2-0.7,0.3
		C73.2,27.2,73.1,27.2,73.1,27.2z M85.4,26.5c-0.1,0-0.1,0-0.2,0c-0.2-0.1-0.5-0.2-0.7-0.3c-0.2-0.1-0.3-0.3-0.2-0.5
		c0.1-0.2,0.3-0.3,0.5-0.2c0.3,0.1,0.5,0.2,0.8,0.3c0.2,0.1,0.3,0.3,0.2,0.5C85.7,26.5,85.5,26.5,85.4,26.5z M75.3,26.4
		c-0.2,0-0.3-0.1-0.4-0.3c-0.1-0.2,0.1-0.4,0.3-0.5c0.3-0.1,0.5-0.2,0.8-0.2c0.2-0.1,0.4,0.1,0.5,0.3c0.1,0.2-0.1,0.4-0.3,0.5
		c-0.2,0.1-0.5,0.1-0.7,0.2C75.4,26.4,75.3,26.4,75.3,26.4z M77.6,25.8c-0.2,0-0.4-0.1-0.4-0.3c0-0.2,0.1-0.4,0.3-0.5
		c0.3-0.1,0.5-0.1,0.8-0.1c0.2,0,0.4,0.1,0.4,0.3c0,0.2-0.1,0.4-0.3,0.4C78.2,25.7,77.9,25.8,77.6,25.8
		C77.6,25.8,77.6,25.8,77.6,25.8z M83.1,25.8C83.1,25.8,83.1,25.8,83.1,25.8c-0.3-0.1-0.6-0.1-0.8-0.1c-0.2,0-0.4-0.2-0.3-0.4
		c0-0.2,0.2-0.4,0.4-0.3c0.3,0,0.5,0.1,0.8,0.1c0.2,0,0.4,0.3,0.3,0.5C83.5,25.7,83.3,25.8,83.1,25.8z M80,25.5
		c-0.2,0-0.4-0.2-0.4-0.4c0-0.2,0.2-0.4,0.4-0.4c0.2,0,0.4,0,0.6,0l0.2,0c0.2,0,0.4,0.2,0.4,0.4c0,0.2-0.2,0.4-0.4,0.4l-0.2,0
		C80.4,25.5,80.2,25.5,80,25.5C80,25.5,80,25.5,80,25.5z"/>
	<path fill="#FFFFFF" d="M64.7,66.4c-0.2,0-0.4-0.2-0.4-0.4c0-0.2,0.2-0.4,0.4-0.4c0.3,0,0.5,0,0.8,0c0.2,0,0.4,0.2,0.4,0.4
		c0,0.2-0.2,0.4-0.4,0.4C65.3,66.3,65,66.4,64.7,66.4C64.8,66.4,64.8,66.4,64.7,66.4z M63.2,66.3C63.1,66.3,63.1,66.3,63.2,66.3
		c-0.3,0-0.6-0.1-0.9-0.1c-0.2,0-0.4-0.3-0.3-0.5c0-0.2,0.3-0.4,0.5-0.3c0.2,0,0.5,0.1,0.7,0.1c0.2,0,0.4,0.2,0.4,0.4
		C63.5,66.2,63.4,66.3,63.2,66.3z M67.1,66.2c-0.2,0-0.4-0.1-0.4-0.4c0-0.2,0.1-0.4,0.3-0.4c0.5-0.1,0.8-0.1,0.8-0.1
		c0.2,0,0.4,0.1,0.5,0.3c0,0.2-0.1,0.4-0.3,0.5C68,66.1,67.7,66.1,67.1,66.2C67.2,66.2,67.1,66.2,67.1,66.2z M61.1,65.4
		c-0.1,0-0.2-0.1-0.3-0.2c-0.1-0.2-0.3-0.4-0.5-0.7c-0.1-0.2-0.1-0.4,0.1-0.5c0.2-0.1,0.4-0.1,0.5,0.1c0.1,0.2,0.3,0.5,0.4,0.6
		c0.1,0.2,0.1,0.4-0.1,0.6C61.3,65.4,61.2,65.4,61.1,65.4z M59.8,63.4c-0.1,0-0.3-0.1-0.3-0.2c-0.1-0.2-0.3-0.4-0.4-0.7
		C59,62.3,59,62.1,59.2,62c0.2-0.1,0.4-0.1,0.5,0.1c0.1,0.2,0.3,0.5,0.4,0.7c0.1,0.2,0.1,0.4-0.1,0.5C60,63.3,59.9,63.4,59.8,63.4z
		 M58.5,61.4c-0.1,0-0.2-0.1-0.3-0.2c-0.2-0.2-0.3-0.4-0.5-0.6c-0.1-0.2-0.1-0.4,0-0.6c0.2-0.1,0.4-0.1,0.6,0
		c0.2,0.2,0.3,0.4,0.5,0.6c0.1,0.2,0.1,0.4-0.1,0.6C58.7,61.4,58.6,61.4,58.5,61.4z M56.9,59.6c-0.1,0-0.2,0-0.3-0.1
		c-0.2-0.2-0.4-0.3-0.6-0.5c-0.2-0.1-0.2-0.4-0.1-0.6c0.1-0.2,0.4-0.2,0.6-0.1c0.2,0.2,0.4,0.4,0.6,0.5c0.2,0.1,0.2,0.4,0,0.6
		C57.1,59.6,57,59.6,56.9,59.6z M55,58.2c-0.1,0-0.1,0-0.2-0.1c-0.2-0.1-0.4-0.2-0.7-0.3c-0.2-0.1-0.3-0.3-0.2-0.5
		c0.1-0.2,0.3-0.3,0.5-0.2c0.3,0.1,0.5,0.2,0.7,0.4c0.2,0.1,0.3,0.4,0.1,0.5C55.3,58.1,55.2,58.2,55,58.2z M52.8,57.3
		C52.8,57.3,52.8,57.3,52.8,57.3c-0.3-0.1-0.6-0.1-0.8-0.2c-0.2,0-0.4-0.2-0.3-0.5c0-0.2,0.2-0.4,0.5-0.3c0.3,0,0.5,0.1,0.8,0.2
		c0.2,0.1,0.3,0.3,0.3,0.5C53.2,57.2,53,57.3,52.8,57.3z M50.2,57c-0.2,0-0.4-0.2-0.4-0.4c0-0.2,0.2-0.4,0.4-0.4l0.2,0
		c0.2,0,0.4,0.2,0.4,0.4S50.7,57,50.5,57L50.2,57C50.2,57,50.2,57,50.2,57z"/>
	<path fill="#FFFFFF" d="M32.5,63.6C32.5,63.6,32.5,63.6,32.5,63.6c0,0-0.3,0-0.9-0.1c-0.2,0-0.4-0.3-0.3-0.5c0-0.2,0.3-0.4,0.5-0.3
		c0.5,0.1,0.7,0.1,0.7,0.1c0.2,0,0.4,0.2,0.4,0.4C32.9,63.4,32.7,63.6,32.5,63.6z M30.2,63c0,0-0.1,0-0.1,0
		c-0.2-0.1-0.5-0.2-0.8-0.3c-0.2-0.1-0.3-0.3-0.2-0.5c0.1-0.2,0.3-0.3,0.5-0.2c0.2,0.1,0.5,0.2,0.7,0.3c0.2,0.1,0.3,0.3,0.2,0.5
		C30.5,62.9,30.4,63,30.2,63z M28.1,62c-0.1,0-0.1,0-0.2-0.1c-0.2-0.1-0.5-0.3-0.7-0.5C27,61.4,27,61.1,27.1,61
		c0.1-0.2,0.4-0.2,0.6-0.1c0.2,0.2,0.4,0.3,0.6,0.4c0.2,0.1,0.2,0.4,0.1,0.5C28.3,62,28.2,62,28.1,62z M26.2,60.6
		c-0.1,0-0.2,0-0.3-0.1c-0.2-0.2-0.4-0.4-0.6-0.6c-0.1-0.2-0.1-0.4,0-0.6c0.2-0.1,0.4-0.1,0.6,0c0.2,0.2,0.3,0.4,0.5,0.6
		c0.2,0.2,0.2,0.4,0,0.6C26.4,60.5,26.3,60.6,26.2,60.6z M24.8,58.7c-0.1,0-0.3-0.1-0.3-0.2c-0.1-0.2-0.3-0.5-0.4-0.7
		c-0.1-0.2,0-0.4,0.2-0.5c0.2-0.1,0.4,0,0.5,0.2c0.1,0.2,0.2,0.5,0.4,0.7c0.1,0.2,0,0.4-0.1,0.5C24.9,58.7,24.8,58.7,24.8,58.7z
		 M23.7,56.5c-0.2,0-0.3-0.1-0.4-0.3c-0.1-0.2-0.2-0.5-0.3-0.8c-0.1-0.2,0-0.4,0.2-0.5c0.2-0.1,0.4,0,0.5,0.2
		c0.1,0.3,0.2,0.5,0.3,0.7c0.1,0.2,0,0.4-0.2,0.5C23.8,56.5,23.8,56.5,23.7,56.5z M23,54.3c-0.2,0-0.3-0.1-0.4-0.3
		c-0.1-0.3-0.1-0.5-0.2-0.8c-0.1-0.2,0.1-0.4,0.3-0.5c0.2-0.1,0.4,0.1,0.5,0.3c0.1,0.3,0.1,0.5,0.2,0.8c0.1,0.2-0.1,0.4-0.3,0.5
		C23,54.3,23,54.3,23,54.3z M22.4,52c-0.2,0-0.3-0.1-0.4-0.3c-0.1-0.3-0.1-0.5-0.2-0.8c0-0.2,0.1-0.4,0.3-0.5c0.2,0,0.4,0.1,0.5,0.3
		c0.1,0.3,0.1,0.5,0.2,0.8C22.8,51.7,22.7,51.9,22.4,52C22.4,52,22.4,52,22.4,52z M21.9,49.6c-0.2,0-0.4-0.1-0.4-0.3
		c0-0.3-0.1-0.5-0.1-0.8c0-0.2,0.1-0.4,0.3-0.4c0.2,0,0.4,0.1,0.4,0.3c0,0.3,0.1,0.5,0.1,0.8C22.4,49.4,22.2,49.6,21.9,49.6
		C22,49.6,21.9,49.6,21.9,49.6z M21.6,47.3c-0.2,0-0.4-0.2-0.4-0.4c0-0.3,0-0.5-0.1-0.8c0-0.2,0.2-0.4,0.4-0.4
		c0.2,0,0.4,0.2,0.4,0.4c0,0.3,0,0.5,0.1,0.8C22.1,47,21.9,47.2,21.6,47.3C21.7,47.3,21.7,47.3,21.6,47.3z M21.5,44.8
		c-0.2,0-0.4-0.1-0.4-0.4l0-0.5l0-0.3c0-0.2,0.2-0.4,0.4-0.4c0,0,0,0,0,0c0.2,0,0.4,0.2,0.4,0.4l0,0.3l0,0.5
		C21.9,44.6,21.7,44.8,21.5,44.8C21.5,44.8,21.5,44.8,21.5,44.8z M21.6,42.5C21.6,42.5,21.6,42.5,21.6,42.5c-0.2,0-0.4-0.2-0.4-0.4
		c0-0.3,0-0.5,0.1-0.8c0-0.2,0.2-0.4,0.4-0.4c0.2,0,0.4,0.2,0.4,0.4c0,0.3,0,0.5-0.1,0.8C22,42.3,21.8,42.5,21.6,42.5z M21.9,40.1
		C21.8,40.1,21.8,40.1,21.9,40.1c-0.3,0-0.4-0.2-0.4-0.5c0-0.3,0.1-0.5,0.2-0.8c0-0.2,0.3-0.4,0.5-0.3c0.2,0,0.4,0.3,0.3,0.5
		c-0.1,0.3-0.1,0.5-0.1,0.8C22.2,40,22,40.1,21.9,40.1z M22.4,37.8c0,0-0.1,0-0.1,0c-0.2-0.1-0.3-0.3-0.3-0.5
		c0.1-0.3,0.2-0.5,0.3-0.8c0.1-0.2,0.3-0.3,0.5-0.2c0.2,0.1,0.3,0.3,0.2,0.5c-0.1,0.2-0.2,0.5-0.3,0.7
		C22.7,37.7,22.6,37.8,22.4,37.8z M23.3,35.6c-0.1,0-0.1,0-0.2,0c-0.2-0.1-0.3-0.3-0.2-0.5c0.1-0.2,0.3-0.5,0.4-0.7
		c0.1-0.2,0.4-0.2,0.5-0.1c0.2,0.1,0.2,0.4,0.1,0.5c-0.1,0.2-0.3,0.4-0.4,0.7C23.6,35.5,23.5,35.6,23.3,35.6z M24.6,33.6
		c-0.1,0-0.2,0-0.2-0.1c-0.2-0.1-0.2-0.4-0.1-0.6c0.2-0.2,0.4-0.4,0.5-0.6c0.2-0.2,0.4-0.2,0.6,0c0.2,0.1,0.2,0.4,0,0.6
		c-0.2,0.2-0.3,0.4-0.5,0.6C24.8,33.6,24.7,33.6,24.6,33.6z M26.3,31.9c-0.1,0-0.2-0.1-0.3-0.2c-0.1-0.2-0.1-0.4,0.1-0.6
		c0.2-0.2,0.4-0.3,0.7-0.5c0.2-0.1,0.4-0.1,0.6,0.1c0.1,0.2,0.1,0.4-0.1,0.5c-0.2,0.1-0.4,0.3-0.6,0.4
		C26.5,31.9,26.4,31.9,26.3,31.9z M28.3,30.7c-0.2,0-0.3-0.1-0.4-0.2c-0.1-0.2,0-0.4,0.2-0.5c0.3-0.1,0.5-0.2,0.8-0.3
		c0.2-0.1,0.4,0,0.5,0.2c0.1,0.2,0,0.4-0.2,0.5c-0.2,0.1-0.5,0.2-0.7,0.3C28.4,30.7,28.4,30.7,28.3,30.7z M37.7,30.3
		C37.7,30.3,37.7,30.3,37.7,30.3c-0.3-0.1-0.5-0.3-0.4-0.5c0.1-0.2,0.3-0.3,0.5-0.3l0,0c0.2,0.1,0.3,0.3,0.3,0.5
		C38.1,30.2,37.9,30.3,37.7,30.3z M36.1,30C36.1,30,36.1,30,36.1,30c-0.3,0-0.6-0.1-0.8-0.1c-0.2,0-0.4-0.2-0.3-0.4
		c0-0.2,0.2-0.4,0.4-0.3c0.3,0,0.5,0.1,0.8,0.1c0.2,0,0.4,0.2,0.3,0.5C36.5,29.9,36.3,30,36.1,30z M30.6,30c-0.2,0-0.4-0.1-0.4-0.3
		c0-0.2,0.1-0.4,0.3-0.5c0.3-0.1,0.5-0.1,0.8-0.1c0.2,0,0.4,0.1,0.4,0.3c0,0.2-0.1,0.4-0.3,0.4C31.2,29.9,30.9,30,30.6,30
		C30.7,30,30.6,30,30.6,30z M33.8,29.8C33.8,29.8,33.8,29.8,33.8,29.8c-0.2,0-0.4,0-0.5,0l-0.2,0c-0.2,0-0.4-0.2-0.4-0.4
		c0-0.2,0.2-0.4,0.4-0.4l0.3,0c0.2,0,0.4,0,0.6,0c0.2,0,0.4,0.2,0.4,0.4C34.2,29.6,34,29.8,33.8,29.8z"/>
</g>
<g>
	<path fill="#3A8287" d="M9.7,47h2.1l2.3-2.2l2.3,2.2h2.1l-3.4-3.2l3.4-3.2h-2.1l-2.3,2.2l-2.3-2.2H9.7l3.4,3.2L9.7,47z"/>
</g>
<g>
	<path fill="#B60051" d="M16,56.2h1.3l1.3-1.3l1.3,1.3h1.3l-2-1.9l2-1.9H20l-1.4,1.3l-1.4-1.3H16l2,1.9L16,56.2z"/>
</g>
<g>
	<path fill="#D6D4CF" d="M15,15.1h1.7l1.9-1.8l1.9,1.8h1.7l-2.7-2.6l2.8-2.7h-1.7l-1.9,1.8l-1.9-1.8H15l2.8,2.7L15,15.1z"/>
</g>
<g>
	<path fill="#8E9D1E" d="M95.2,26.1h1.7l1.9-1.8l1.9,1.8h1.7l-2.7-2.6l2.8-2.7h-1.7l-1.9,1.8l-1.9-1.8h-1.7l2.8,2.7L95.2,26.1z"/>
</g>
<g>
	<path fill="#3A8287" d="M42.4,15.8h1l1-1l1,1h1l-1.5-1.5l1.5-1.5h-1l-1.1,1l-1.1-1h-1l1.5,1.5L42.4,15.8z"/>
</g>
<g>
	<path fill="#3A8287" d="M109.8,48.1h1.3l1.3-1.3l1.3,1.3h1.3l-2-1.9l2-1.9h-1.3l-1.4,1.3l-1.4-1.3h-1.3l2,1.9L109.8,48.1z"/>
</g>
<g>
	<path fill="#D6D4CF" d="M95.2,60.7h2.1l2.3-2.2l2.3,2.2h2.1l-3.4-3.2l3.4-3.2h-2.1l-2.3,2.2l-2.3-2.2h-2.1l3.4,3.2L95.2,60.7z"/>
</g>
<g>
	<path fill="#B60051" d="M65.8,11.8h1.3l1.3-1.3l1.3,1.3H71l-2-1.9L71,8h-1.3l-1.4,1.3L67.1,8h-1.3l2,1.9L65.8,11.8z"/>
</g>
</svg>
