<svg xmlns="http://www.w3.org/2000/svg" width="89.066" height="68.513" viewBox="0 0 89.066 68.513"><g fill="#fff"><path d="M65.19 0H14.04c-1.52 0-2.764 1.244-2.764 2.765V33.18c0 1.52 1.244 2.764 2.765 2.764h51.15c1.522 0 2.766-1.244 2.766-2.765V2.764C67.956 1.245 66.712 0 65.19 0zm-1.215 27.044c0 1.52-1.244 2.765-2.765 2.765H18.023c-1.52 0-2.765-1.245-2.765-2.766V6.134c0-1.52 1.244-2.765 2.765-2.765H61.21c1.52 0 2.765 1.243 2.765 2.764v20.91zM30.458 34.56h18.317v7.74H30.458zM28.016 40.573h23.2V42.3h-23.2z"/></g><path fill="#fff" d="M65.31 41.45h-7.46c-1.823 0-3.315 1.492-3.315 3.316V64.91c0 1.825 1.492 3.317 3.316 3.317h7.46c1.825 0 3.317-1.492 3.317-3.316V44.767c0-1.824-1.492-3.316-3.316-3.316zm-3.913 25.974c-.763 0-1.382-.618-1.382-1.382 0-.763.62-1.382 1.382-1.382.763 0 1.382.62 1.382 1.382-.002.763-.62 1.382-1.383 1.382zm5.848-3.04h-11.33v-20.31h11.33v20.31zM44.532 43.437H14.07c-1.825 0-3.317 1.492-3.317 3.316v18.444c0 1.824 1.492 3.316 3.316 3.316h30.463c1.824 0 3.316-1.492 3.316-3.316V46.753c-.002-1.824-1.494-3.316-3.318-3.316zm-1.76 22.796H12.514V45.717H42.77v20.516zm2.4-8.55c-.84 0-1.52-.68-1.52-1.52 0-.838.68-1.52 1.52-1.52.838 0 1.52.68 1.52 1.52s-.68 1.52-1.52 1.52z"/><g fill="#fff"><path d="M29.204 14.493l1.63 1.63.08-.084c4.68-4.68 12.232-4.732 16.98-.162l1.456-1.457c-5.59-5.505-14.585-5.483-20.146.073zM32.663 17.788l-.08.084 1.516 1.516c2.856-2.852 7.466-2.873 10.354-.07l1.69-1.69c-3.78-3.607-9.767-3.555-13.48.16zM35.893 21.09c-.016.015-.028.032-.044.047l3.39 3.392 3.564-3.564c-1.953-1.817-5.008-1.78-6.91.123zM35.893 21.09c-.016.015-.028.032-.044.047l3.39 3.392 3.564-3.564c-1.953-1.817-5.008-1.78-6.91.123zM35.893 21.09c-.016.015-.028.032-.044.047l3.39 3.392 3.564-3.564c-1.953-1.817-5.008-1.78-6.91.123z"/></g><g fill="#fff"><path d="M57.388 53.18l.732.732.036-.038c2.102-2.102 5.493-2.125 7.625-.072l.655-.654c-2.51-2.473-6.55-2.463-9.047.032zM58.942 54.66l-.036.038.68.68c1.284-1.28 3.355-1.29 4.65-.03l.76-.76c-1.698-1.62-4.386-1.597-6.054.072zM60.392 56.142l-.02.022 1.523 1.523 1.6-1.6c-.876-.816-2.248-.8-3.103.055zM60.392 56.142l-.02.022 1.523 1.523 1.6-1.6c-.876-.816-2.248-.8-3.103.055zM60.392 56.142l-.02.022 1.523 1.523 1.6-1.6c-.876-.816-2.248-.8-3.103.055z"/></g><g fill="#fff"><path d="M20.915 53.17l1.273 1.272c.02-.022.04-.044.062-.065 3.653-3.653 9.547-3.693 13.253-.126l1.137-1.136c-4.364-4.3-11.385-4.282-15.725.055zM23.615 55.74c-.02.022-.04.045-.062.066l1.183 1.183c2.23-2.227 5.828-2.243 8.082-.055l1.32-1.32c-2.95-2.814-7.624-2.774-10.523.126zM26.136 58.318l-.034.038 2.648 2.648 2.78-2.78c-1.524-1.42-3.91-1.39-5.394.094zM26.136 58.318l-.034.038 2.648 2.648 2.78-2.78c-1.524-1.42-3.91-1.39-5.394.094zM26.136 58.318l-.034.038 2.648 2.648 2.78-2.78c-1.524-1.42-3.91-1.39-5.394.094z"/></g><path stroke="#fff" stroke-linecap="round" stroke-linejoin="round" stroke-miterlimit="10" stroke-dasharray="1,2" d="M67.956 55.975s11.5.908 14.195-6.072c2.695-6.98-3.315-9.747-3.315-11.472 0-1.724-1.865-9.185 6.424-11.257s1.45-30.55-25.698-13.957M58.906 59.092s-5.673.834-7.69 0c-2.015-.834-4.547-11.61-14.576-11.403M14.385 55.975s-6.424-.542-9.74-6.072-6.01-19.443-2.487-27.822 10.988-9.828 18.757-7.963" fill="none"/></svg>