<svg xmlns="http://www.w3.org/2000/svg" width="69.005" height="78.367" viewBox="0 0 69.005 78.367"><path fill="#fff" d="M31.54 0H9.703C4.367 0 0 4.367 0 9.704v58.96C0 74 4.367 78.366 9.704 78.366h21.834c5.337 0 9.704-4.367 9.704-9.704V9.703C41.242 4.368 36.876 0 31.54 0zM20.08 76.016c-2.233 0-4.043-1.81-4.043-4.043s1.81-4.043 4.042-4.043c2.233 0 4.044 1.81 4.044 4.043s-1.81 4.043-4.044 4.043zM37.2 67.12H4.042V7.682H37.2V67.12zM24.063 44.333l-6.8.068.12.658.576 1.127 1.038 1.016 1.476.354 1.118-.107 1.472-.774.867-1.156.278-.98z"/><path stroke="#fff" stroke-miterlimit="10" d="M29.15 32.73c0-4.446-3.648-8.05-8.094-8.05s-8.084 3.604-8.084 8.05c0 3.265 1.707 6.07 4.707 7.333v4.092c0 1.877 1.622 3.4 3.5 3.4 1.876 0 3.5-1.523 3.5-3.4v-4.178c2.998-1.3 4.47-4.053 4.47-7.247z" fill="none"/><path fill="#fff" d="M22.956 26.85s.632-.16 1.495.12c.443.118.916.373 1.38.727.216.193.454.387.637.64.208.233.37.506.52.788.16.276.242.588.34.882.084.3.106.606.14.894.01.29-.02.57-.044.83-.023.26-.12.495-.183.71-.113.43-.344.747-.483.965-.15.216-.253.328-.253.328s-.062-.15-.14-.395c-.082-.244-.145-.578-.27-.95-.065-.183-.1-.382-.175-.578-.076-.195-.133-.4-.2-.6-.09-.196-.154-.4-.236-.597-.11-.186-.154-.4-.277-.58-.376-.762-.903-1.49-1.38-2.105l-.87-1.078z"/><path stroke="#fff" stroke-miterlimit="10" fill="none" d="M17.178 40.554h7M24.23 43.528l-6.976-.94"/><g stroke="#fff" stroke-miterlimit="10" fill="none"><path d="M20.678 23.054v-6M31.178 32.554h5M5.178 32.554h5M28.188 39.567l3.918 3.668M9.378 21.964l3.92 3.668M27.822 25.26l3.726-3.863M9.937 43.802l3.726-3.863"/></g><path fill="#fff" d="M56.178 25.668v27.93l12.827-13.965zM44.178 31.955h12.175v14.71H44.178z"/></svg>