<?xml version="1.0" encoding="utf-8"?>
<!-- Generator: Adobe Illustrator 17.0.0, SVG Export Plug-In . SVG Version: 6.00 Build 0)  -->
<!DOCTYPE svg PUBLIC "-//W3C//DTD SVG 1.1//EN" "http://www.w3.org/Graphics/SVG/1.1/DTD/svg11.dtd">
<svg version="1.1" id="Calque_1" xmlns="http://www.w3.org/2000/svg" xmlns:xlink="http://www.w3.org/1999/xlink" x="0px" y="0px"
	 width="69.005px" height="78.367px" viewBox="0 0 69.005 78.367" enable-background="new 0 0 69.005 78.367" xml:space="preserve">
<g>
	<path fill="#FFFFFF" d="M31.539,0H9.704C4.367,0,0,4.367,0,9.704v58.959C0,74,4.367,78.367,9.704,78.367h21.834
		c5.337,0,9.704-4.367,9.704-9.704V9.704C41.243,4.367,36.876,0,31.539,0z M20.082,76.016c-2.233,0-4.043-1.81-4.043-4.043
		c0-2.233,1.81-4.043,4.043-4.043c2.233,0,4.044,1.81,4.044,4.043C24.126,74.206,22.315,76.016,20.082,76.016z M37.199,67.12H4.043
		V7.682h33.156V67.12z"/>
	<g>
		<polygon fill="#FFFFFF" points="24.063,44.333 17.264,44.401 17.383,45.058 17.959,46.185 18.998,47.201 20.474,47.554 
			21.592,47.447 23.064,46.673 23.931,45.517 24.208,44.536 		"/>
		<path fill="none" stroke="#FFFFFF" stroke-miterlimit="10" d="M29.151,32.73c0-4.446-3.649-8.05-8.095-8.05
			s-8.084,3.604-8.084,8.05c0,3.265,1.707,6.07,4.707,7.333v4.092c0,1.877,1.623,3.399,3.5,3.399c1.877,0,3.5-1.522,3.5-3.399
			v-4.178C27.678,38.676,29.151,35.924,29.151,32.73z"/>
		<g>
			<path fill="#FFFFFF" d="M22.956,26.85c0,0,0.632-0.16,1.495,0.121c0.442,0.117,0.915,0.372,1.378,0.726
				c0.217,0.193,0.455,0.387,0.638,0.639c0.208,0.234,0.37,0.507,0.52,0.789c0.161,0.276,0.242,0.588,0.34,0.882
				c0.084,0.299,0.106,0.606,0.141,0.894c0.009,0.29-0.021,0.57-0.045,0.829c-0.023,0.259-0.12,0.495-0.183,0.709
				c-0.113,0.431-0.344,0.748-0.483,0.966c-0.15,0.216-0.253,0.328-0.253,0.328s-0.062-0.151-0.139-0.395
				c-0.083-0.244-0.146-0.578-0.272-0.949c-0.064-0.184-0.099-0.383-0.174-0.579c-0.075-0.195-0.132-0.399-0.198-0.601
				c-0.091-0.195-0.155-0.399-0.237-0.596c-0.11-0.186-0.154-0.4-0.277-0.579c-0.376-0.763-0.903-1.49-1.379-2.106
				C23.305,27.282,22.956,26.85,22.956,26.85z"/>
		</g>
		<line fill="none" stroke="#FFFFFF" stroke-miterlimit="10" x1="17.178" y1="40.554" x2="24.178" y2="40.554"/>
		<line fill="none" stroke="#FFFFFF" stroke-miterlimit="10" x1="24.231" y1="43.528" x2="17.254" y2="42.589"/>
		<g>
			<line fill="none" stroke="#FFFFFF" stroke-miterlimit="10" x1="20.678" y1="23.054" x2="20.678" y2="17.054"/>
			<line fill="none" stroke="#FFFFFF" stroke-miterlimit="10" x1="31.178" y1="32.554" x2="36.178" y2="32.554"/>
			<line fill="none" stroke="#FFFFFF" stroke-miterlimit="10" x1="5.178" y1="32.554" x2="10.178" y2="32.554"/>
			<line fill="none" stroke="#FFFFFF" stroke-miterlimit="10" x1="28.188" y1="39.567" x2="32.106" y2="43.235"/>
			<line fill="none" stroke="#FFFFFF" stroke-miterlimit="10" x1="9.378" y1="21.964" x2="13.297" y2="25.632"/>
			<line fill="none" stroke="#FFFFFF" stroke-miterlimit="10" x1="27.822" y1="25.26" x2="31.548" y2="21.397"/>
			<line fill="none" stroke="#FFFFFF" stroke-miterlimit="10" x1="9.937" y1="43.802" x2="13.663" y2="39.939"/>
		</g>
	</g>
	<polygon fill="#FFFFFF" points="56.178,25.668 56.178,53.598 69.005,39.633 	"/>
	<rect x="44.178" y="31.955" fill="#FFFFFF" width="12.175" height="14.711"/>
</g>
</svg>
